<svg width="62" height="62" viewBox="0 0 62 62" fill="none" xmlns="http://www.w3.org/2000/svg">
<mask id="mask0_11_23449" style="mask-type:alpha" maskUnits="userSpaceOnUse" x="0" y="0" width="62" height="62">
<rect width="62" height="62" fill="#D9D9D9"/>
</mask>
<g mask="url(#mask0_11_23449)">
<path d="M7.75004 54.25C6.32921 54.25 5.11289 53.7441 4.10108 52.7323C3.08928 51.7205 2.58337 50.5042 2.58337 49.0833V18.0833C2.58337 16.6625 3.08928 15.4462 4.10108 14.4344C5.11289 13.4226 6.32921 12.9166 7.75004 12.9166H15.8875L20.6667 7.74998H36.1667V12.9166H22.9271L18.2125 18.0833H7.75004V49.0833H49.0834V25.8333H54.25V49.0833C54.25 50.5042 53.7441 51.7205 52.7323 52.7323C51.7205 53.7441 50.5042 54.25 49.0834 54.25H7.75004ZM49.0834 18.0833V12.9166H43.9167V7.74998H49.0834V2.58331H54.25V7.74998H59.4167V12.9166H54.25V18.0833H49.0834ZM28.4167 45.2083C31.6459 45.2083 34.3907 44.0781 36.6511 41.8177C38.9115 39.5573 40.0417 36.8125 40.0417 33.5833C40.0417 30.3541 38.9115 27.6094 36.6511 25.3489C34.3907 23.0885 31.6459 21.9583 28.4167 21.9583C25.1875 21.9583 22.4428 23.0885 20.1823 25.3489C17.9219 27.6094 16.7917 30.3541 16.7917 33.5833C16.7917 36.8125 17.9219 39.5573 20.1823 41.8177C22.4428 44.0781 25.1875 45.2083 28.4167 45.2083ZM28.4167 40.0416C26.6084 40.0416 25.0799 39.4173 23.8313 38.1687C22.5827 36.9201 21.9584 35.3916 21.9584 33.5833C21.9584 31.775 22.5827 30.2465 23.8313 28.9979C25.0799 27.7493 26.6084 27.125 28.4167 27.125C30.225 27.125 31.7535 27.7493 33.0021 28.9979C34.2507 30.2465 34.875 31.775 34.875 33.5833C34.875 35.3916 34.2507 36.9201 33.0021 38.1687C31.7535 39.4173 30.225 40.0416 28.4167 40.0416Z" fill="#232047"/>
</g>
</svg>
