<svg width="33" height="32" viewBox="0 0 33 32" fill="none" xmlns="http://www.w3.org/2000/svg">
<path d="M26.4093 8.39819C26.0633 7.65168 25.4361 6.85805 24.6424 6.16163C23.5057 5.16333 22.2248 4.542 21.3001 4.542C21.2471 4.542 21.1956 4.542 21.1529 4.542C20.8828 4.55139 20.6236 4.65091 20.4167 4.82469C20.3853 4.85219 20.3558 4.88163 20.3283 4.91304L20.2959 4.95131L20.2871 4.96605C20.216 5.05725 20.1607 5.15979 20.1237 5.26936L18.9457 7.44701C18.7998 7.42219 18.6521 7.40891 18.504 7.40728C18.3288 7.406 18.1542 7.42979 17.9857 7.47795L17.9298 7.49413L17.8606 7.52064L17.7781 7.55451L17.7413 7.57365C17.7089 7.58984 17.6765 7.60752 17.6471 7.62517L17.6309 7.63549C17.597 7.65757 17.5646 7.67965 17.5352 7.70176C17.4795 7.74627 17.4278 7.79552 17.3806 7.84899L16.0554 9.17413L16.0466 9.18445C15.7138 9.56285 15.6564 10.0679 15.7919 10.6303L7.58182 18.9523C6.03139 20.5027 5.87088 22.863 7.22403 24.2161C7.52808 24.5139 7.88814 24.7486 8.28339 24.9066C8.67862 25.0645 9.10126 25.1426 9.52683 25.1363C10.6443 25.1153 11.7085 24.6551 12.4893 23.8554L20.9644 15.2654C21.0872 15.2839 21.2112 15.2933 21.3354 15.2934C21.9362 15.2934 22.2792 15.0563 22.4633 14.8517L23.7119 13.6031C23.7295 13.5869 23.7443 13.5707 23.759 13.5545L23.7884 13.5251L23.7987 13.5147C23.825 13.4847 23.8496 13.4533 23.8724 13.4205C24.0628 13.1426 24.1484 12.806 24.1138 12.4708C24.0969 12.2502 24.0524 12.0325 23.9813 11.823L26.0014 10.57C26.1396 10.5198 26.266 10.4416 26.3725 10.3403L26.3872 10.33L26.4299 10.2814C26.7892 9.86912 26.7818 9.20064 26.4093 8.39819Z" fill="#390176"/>
<path d="M9.52683 25.1363C9.10126 25.1426 8.67862 25.0645 8.28339 24.9065C7.88814 24.7486 7.52808 24.5139 7.22403 24.2161C5.87088 22.863 6.03139 20.5027 7.58182 18.9523L17.2849 9.11816L22.1909 14.0242L12.4893 23.8553C11.7085 24.6551 10.6443 25.1153 9.52683 25.1363Z" fill="#390176"/>
<path d="M12.174 23.5446C10.7943 24.9243 8.71826 25.0848 7.53591 23.9039C6.35359 22.723 6.51407 20.644 7.8937 19.2644L17.2876 9.74538L21.5678 14.0256L12.174 23.5446Z" fill="#BCFFFF"/>
<g opacity="0.64">
<path d="M9.52718 24.3266C9.20779 24.3324 8.89041 24.275 8.59326 24.1578C8.29611 24.0405 8.02505 23.8657 7.79566 23.6434C6.76499 22.6127 6.92105 20.759 8.15491 19.5207L17.2838 10.2638L21.0428 14.0228L11.9139 23.2827C11.2866 23.931 10.4291 24.306 9.52718 24.3266Z" fill="url(#paint0_radial_11_22239)"/>
</g>
<g style="mix-blend-mode:color-dodge" opacity="0.2">
<path d="M9.52718 24.3266C9.20779 24.3324 8.89041 24.275 8.59326 24.1578C8.29611 24.0405 8.02505 23.8657 7.79566 23.6434C6.76499 22.6127 6.92105 20.759 8.15491 19.5207L17.2838 10.2638L21.0428 14.0228L11.9139 23.2827C11.2866 23.931 10.4291 24.306 9.52718 24.3266Z" fill="url(#paint1_radial_11_22239)"/>
</g>
<path d="M12.1255 15.5009L8.15003 19.525C6.91617 20.7588 6.75419 22.6067 7.79075 23.6477C8.02017 23.87 8.29123 24.0448 8.58838 24.162C8.88553 24.2793 9.20291 24.3366 9.5223 24.3309C10.423 24.311 11.2798 23.9376 11.9076 23.2913L19.3549 15.7439L12.1255 15.5009Z" fill="#390176"/>
<path d="M9.52665 24.1057C9.23769 24.1106 8.95063 24.0585 8.6818 23.9523C8.413 23.8462 8.16775 23.6882 7.96004 23.4873C7.00887 22.5361 7.16935 20.837 8.31783 19.6811L12.2138 15.7233L18.8557 15.9427L11.7632 23.1309C11.1752 23.7378 10.3715 24.0881 9.52665 24.1057Z" fill="url(#paint2_linear_11_22239)"/>
<path d="M12.1255 15.501C11.7883 15.8337 11.7883 16.489 14.7331 16.7172C18.5613 17.0117 19.2975 15.981 19.3594 15.7395C19.436 15.445 18.4141 14.8031 15.911 14.8031C13.408 14.8031 12.4612 15.1682 12.1255 15.501Z" fill="#390176"/>
<path d="M16.0126 16.5479C15.6209 16.5479 15.1969 16.5302 14.7493 16.4963C12.4921 16.3226 12.2315 15.9147 12.202 15.8338C12.1726 15.7528 12.2403 15.6969 12.2801 15.6586C12.5201 15.4215 13.3107 15.0239 15.911 15.0239C18.0695 15.0239 19.0104 15.5098 19.1355 15.7057C19.059 15.8397 18.5333 16.5479 16.0126 16.5479Z" fill="url(#paint3_linear_11_22239)"/>
<path opacity="0.33" d="M11.9124 23.287L21.0413 14.0271L20.0341 13.0362C18.7252 14.3746 16.9112 16.2858 14.7335 18.6313C12.4719 21.0651 11.1674 22.592 10.0219 23.1957C9.2312 23.6124 8.12544 23.5005 7.5188 23.3061C7.59912 23.4266 7.69032 23.5395 7.7912 23.6433C8.02059 23.8656 8.29165 24.0404 8.5888 24.1577C8.88595 24.2749 9.20333 24.3323 9.52272 24.3265C10.425 24.3078 11.2836 23.9343 11.9124 23.287Z" fill="#231F1F"/>
<path d="M15.9847 13.9196C16.3507 13.9196 16.6473 13.6229 16.6473 13.257C16.6473 12.8911 16.3507 12.5944 15.9847 12.5944C15.6188 12.5944 15.3221 12.8911 15.3221 13.257C15.3221 13.6229 15.6188 13.9196 15.9847 13.9196Z" fill="#FFFAE4"/>
<path d="M10.3896 18.0866C10.2673 18.2129 10.2003 18.3826 10.2032 18.5584C10.2061 18.7342 10.2787 18.9015 10.405 19.0238C10.5313 19.146 10.7011 19.213 10.8768 19.2102C11.0526 19.2073 11.22 19.1346 11.3422 19.0083L15.3339 14.8856C15.4497 14.7583 15.5114 14.5909 15.506 14.4189C15.5005 14.2469 15.4284 14.0837 15.3048 13.964C15.1812 13.8442 15.0159 13.7772 14.8438 13.7772C14.6717 13.7772 14.5063 13.8442 14.3827 13.9639L10.3896 18.0866Z" fill="url(#paint4_linear_11_22239)"/>
<path opacity="0.2" d="M9.5077 22.8307C9.69149 22.8307 9.84047 22.6817 9.84047 22.4979C9.84047 22.3141 9.69149 22.1651 9.5077 22.1651C9.32391 22.1651 9.17493 22.3141 9.17493 22.4979C9.17493 22.6817 9.32391 22.8307 9.5077 22.8307Z" fill="white"/>
<g opacity="0.4">
<path opacity="0.6" d="M9.69583 22.7068C9.72695 22.6762 9.75164 22.6396 9.76852 22.5993C9.78538 22.559 9.79407 22.5157 9.79407 22.472C9.79407 22.4283 9.78538 22.385 9.76852 22.3447C9.75164 22.3044 9.72695 22.2678 9.69583 22.2371C9.67522 22.2156 9.65074 22.1981 9.62367 22.1856C9.66618 22.2031 9.70548 22.2274 9.73999 22.2578C9.8022 22.3204 9.83714 22.4051 9.83714 22.4933C9.83714 22.5816 9.8022 22.6663 9.73999 22.7289C9.68794 22.7821 9.61938 22.816 9.54556 22.8251C9.47172 22.8342 9.397 22.8179 9.33362 22.779C9.39407 22.8057 9.4613 22.8131 9.52612 22.8002C9.59095 22.7873 9.65023 22.7547 9.69583 22.7068Z" fill="url(#paint5_linear_11_22239)"/>
</g>
<path opacity="0.3" d="M9.39296 22.3962C9.4328 22.3962 9.46509 22.3639 9.46509 22.3241C9.46509 22.2843 9.4328 22.2519 9.39296 22.2519C9.35312 22.2519 9.3208 22.2843 9.3208 22.3241C9.3208 22.3639 9.35312 22.3962 9.39296 22.3962Z" fill="white"/>
<path opacity="0.2" d="M10.3173 21.9471C10.5417 21.9471 10.7237 21.7651 10.7237 21.5407C10.7237 21.3163 10.5417 21.1343 10.3173 21.1343C10.0928 21.1343 9.91089 21.3163 9.91089 21.5407C9.91089 21.7651 10.0928 21.9471 10.3173 21.9471Z" fill="white"/>
<g opacity="0.4">
<path opacity="0.6" d="M10.5483 21.797C10.5861 21.7594 10.6161 21.7146 10.6366 21.6654C10.6571 21.6161 10.6677 21.5633 10.6677 21.5099C10.6677 21.4565 10.6571 21.4037 10.6366 21.3544C10.6161 21.3051 10.5861 21.2604 10.5483 21.2228C10.5226 21.1973 10.4927 21.1763 10.4599 21.1609C10.514 21.1812 10.5639 21.2111 10.6072 21.2493C10.6774 21.3194 10.7195 21.4127 10.7257 21.5118C10.7318 21.6108 10.7015 21.7086 10.6405 21.7869C10.5795 21.8651 10.4919 21.9183 10.3944 21.9364C10.2969 21.9546 10.196 21.9364 10.111 21.8854C10.1843 21.9163 10.2652 21.9244 10.3432 21.9086C10.4212 21.8929 10.4927 21.854 10.5483 21.797Z" fill="url(#paint6_linear_11_22239)"/>
</g>
<path opacity="0.3" d="M10.1761 21.417C10.2249 21.417 10.2645 21.3774 10.2645 21.3286C10.2645 21.2798 10.2249 21.2403 10.1761 21.2403C10.1273 21.2403 10.0878 21.2798 10.0878 21.3286C10.0878 21.3774 10.1273 21.417 10.1761 21.417Z" fill="white"/>
<path opacity="0.2" d="M9.43396 21.2108C9.65841 21.2108 9.84036 21.0289 9.84036 20.8044C9.84036 20.58 9.65841 20.3981 9.43396 20.3981C9.20953 20.3981 9.02759 20.58 9.02759 20.8044C9.02759 21.0289 9.20953 21.2108 9.43396 21.2108Z" fill="white"/>
<g opacity="0.4">
<path opacity="0.6" d="M9.66543 21.0609C9.70327 21.0233 9.73332 20.9785 9.7538 20.9293C9.77428 20.88 9.78484 20.8272 9.78484 20.7738C9.78484 20.7204 9.77428 20.6676 9.7538 20.6183C9.73332 20.569 9.70327 20.5243 9.66543 20.4867C9.63975 20.4612 9.60986 20.4402 9.57711 20.4248C9.63114 20.4451 9.68106 20.475 9.72434 20.5132C9.79455 20.5833 9.83671 20.6766 9.84284 20.7757C9.849 20.8747 9.81868 20.9725 9.75767 21.0508C9.69666 21.129 9.60911 21.1822 9.51156 21.2003C9.41402 21.2185 9.31322 21.2003 9.22815 21.1493C9.30148 21.1802 9.38242 21.1883 9.46042 21.1725C9.53842 21.1567 9.60986 21.1179 9.66543 21.0609Z" fill="url(#paint7_linear_11_22239)"/>
</g>
<path opacity="0.3" d="M9.29281 20.6809C9.34161 20.6809 9.38116 20.6414 9.38116 20.5926C9.38116 20.5438 9.34161 20.5042 9.29281 20.5042C9.24401 20.5042 9.20447 20.5438 9.20447 20.5926C9.20447 20.6414 9.24401 20.6809 9.29281 20.6809Z" fill="white"/>
<path opacity="0.2" d="M11.2007 20.7693C11.5065 20.7693 11.7543 20.5214 11.7543 20.2156C11.7543 19.9099 11.5065 19.662 11.2007 19.662C10.8949 19.662 10.6471 19.9099 10.6471 20.2156C10.6471 20.5214 10.8949 20.7693 11.2007 20.7693Z" fill="white"/>
<g opacity="0.4">
<path opacity="0.6" d="M11.5147 20.5646C11.5661 20.5132 11.607 20.4522 11.6348 20.385C11.6627 20.3178 11.677 20.2457 11.677 20.173C11.677 20.1002 11.6627 20.0282 11.6348 19.961C11.607 19.8938 11.5661 19.8327 11.5147 19.7813C11.4797 19.7465 11.4388 19.7181 11.3939 19.6974C11.465 19.7257 11.5303 19.7666 11.5868 19.8181C11.6821 19.9135 11.7393 20.0405 11.7476 20.1751C11.756 20.3097 11.7149 20.4427 11.6321 20.5491C11.5493 20.6556 11.4305 20.7282 11.298 20.7533C11.1655 20.7783 11.0284 20.7542 10.9125 20.6854C11.0132 20.729 11.1248 20.7408 11.2324 20.7192C11.3401 20.6976 11.4385 20.6437 11.5147 20.5646Z" fill="url(#paint8_linear_11_22239)"/>
</g>
<path opacity="0.3" d="M11.0093 20.0462C11.076 20.0462 11.13 19.9922 11.13 19.9255C11.13 19.8588 11.076 19.8047 11.0093 19.8047C10.9426 19.8047 10.8885 19.8588 10.8885 19.9255C10.8885 19.9922 10.9426 20.0462 11.0093 20.0462Z" fill="white"/>
<path d="M21.3351 15.2934C20.359 15.2934 19.022 14.6529 17.8471 13.6207C16.2878 12.2514 15.1246 10.2342 16.0404 9.19179L16.0493 9.18149L17.3744 7.85635C17.5585 7.65315 17.9015 7.41461 18.5008 7.41461C19.477 7.41461 20.8139 8.05512 21.9889 9.08725C22.8046 9.80283 23.451 10.6244 23.8102 11.3974C24.2225 12.2809 24.2181 13.0362 23.797 13.5162L23.7867 13.5265L22.4615 14.8517C22.2775 15.0549 21.9344 15.2934 21.3337 15.2934H21.3351Z" fill="#390176"/>
<path d="M16.3721 9.48336C15.7552 10.1872 16.5459 11.8907 18.139 13.2895C19.7321 14.6883 21.5255 15.2522 22.141 14.5499L23.4661 13.2247C24.0831 12.5224 23.2924 10.8188 21.6993 9.41858C20.1061 8.01832 18.3128 7.45586 17.6973 8.15821L16.3721 9.48336Z" fill="#BCFFFF"/>
<g opacity="0.64">
<path d="M21.3353 14.6308C20.5255 14.6308 19.3284 14.0418 18.2845 13.1231C16.9991 11.9937 15.9655 10.2813 16.5382 9.62907L17.8531 8.31421C17.9375 8.22973 18.0393 8.16475 18.1515 8.12379C18.2636 8.08285 18.3834 8.06693 18.5024 8.07717C19.3122 8.07717 20.5092 8.66613 21.5532 9.58491C22.3012 10.2416 22.8901 10.9851 23.2111 11.6757C23.5056 12.3015 23.5335 12.8124 23.3009 13.0789L21.9846 14.3982C21.9003 14.4827 21.7984 14.5478 21.6862 14.5887C21.574 14.6297 21.4543 14.6455 21.3353 14.6352V14.6308Z" fill="url(#paint9_radial_11_22239)"/>
</g>
<g opacity="0.64">
<path d="M22.6611 13.3056C21.8513 13.3056 20.6542 12.7166 19.6103 11.7979C18.3249 10.6685 17.2913 8.95616 17.864 8.30389C17.9479 8.22232 18.0485 8.15981 18.1588 8.12069C18.269 8.08154 18.3865 8.06669 18.503 8.07712C19.3128 8.07712 20.5099 8.66608 21.5538 9.58485C22.3018 10.2415 22.8908 10.9851 23.2117 11.6757C23.5062 12.3014 23.5342 12.8123 23.3016 13.0788C23.2174 13.1604 23.1166 13.223 23.006 13.2621C22.8955 13.3012 22.7778 13.3161 22.6611 13.3056Z" fill="url(#paint10_radial_11_22239)"/>
</g>
<g style="mix-blend-mode:color-dodge" opacity="0.2">
<path d="M21.3353 14.6308C20.5255 14.6308 19.3284 14.0418 18.2845 13.1231C16.9991 11.9937 15.9655 10.2813 16.5382 9.62907L17.8531 8.31421C17.9375 8.22973 18.0393 8.16475 18.1515 8.12379C18.2636 8.08285 18.3834 8.06693 18.5024 8.07717C19.3122 8.07717 20.5092 8.66613 21.5532 9.58491C22.3012 10.2416 22.8901 10.9851 23.2111 11.6757C23.5056 12.3015 23.5335 12.8124 23.3009 13.0789L21.9846 14.3982C21.9003 14.4827 21.7984 14.5478 21.6862 14.5887C21.574 14.6297 21.4543 14.6455 21.3353 14.6352V14.6308Z" fill="url(#paint11_radial_11_22239)"/>
</g>
<path d="M23.7987 13.5148C23.6176 13.7224 23.273 13.9683 22.6605 13.9683C22.5825 13.9683 22.503 13.9683 22.422 13.9565C21.7671 13.8655 21.1378 13.6415 20.5727 13.2984C20.0731 13.0125 19.6039 12.6766 19.1724 12.2957C17.3393 10.6849 16.5619 8.78106 17.3658 7.86672C17.5469 7.66058 17.8915 7.41322 18.5025 7.41322C19.4787 7.41322 20.8156 8.05517 21.9906 9.08733C22.8063 9.8029 23.4527 10.623 23.8119 11.396C24.2242 12.2854 24.2198 13.0378 23.7987 13.5148Z" fill="#390176"/>
<path opacity="0.33" d="M22.422 13.9565L21.9803 14.3982C21.8963 14.4833 21.7945 14.5488 21.6823 14.59C21.57 14.6313 21.4501 14.6472 21.331 14.6367C20.8893 14.6367 20.346 14.463 19.7703 14.1626L20.5683 13.3042C21.1352 13.6459 21.7661 13.8678 22.422 13.9565Z" fill="#231F1F"/>
<path d="M23.466 13.2202C23.3095 13.3898 23.0952 13.4948 22.8653 13.5147C22.3485 13.5809 21.6373 13.3836 20.8805 12.9684C20.3736 12.6857 19.8986 12.349 19.4641 11.9642C17.8709 10.5655 17.0803 8.8619 17.6972 8.15958C18.3141 7.45726 20.106 8.02118 21.6992 9.41995C23.2923 10.8187 24.0844 12.5223 23.466 13.2202Z" fill="#BCFFFF"/>
<g opacity="0.64">
<path d="M22.6611 13.3056C21.8513 13.3056 20.6542 12.7166 19.6103 11.7979C18.3249 10.6685 17.2913 8.95616 17.864 8.30389C17.9479 8.22232 18.0485 8.15981 18.1588 8.12069C18.269 8.08154 18.3865 8.06669 18.503 8.07712C19.3128 8.07712 20.5099 8.66608 21.5538 9.58485C22.3018 10.2415 22.8908 10.9851 23.2117 11.6757C23.5062 12.3014 23.5342 12.8123 23.3016 13.0788C23.2174 13.1604 23.1166 13.223 23.006 13.2621C22.8955 13.3012 22.7778 13.3161 22.6611 13.3056Z" fill="url(#paint12_radial_11_22239)"/>
</g>
<g style="mix-blend-mode:color-dodge" opacity="0.2">
<path d="M22.6611 13.3056C21.8513 13.3056 20.6542 12.7166 19.6103 11.7979C18.3249 10.6685 17.2913 8.95616 17.864 8.30389C17.9479 8.22232 18.0485 8.15981 18.1588 8.12069C18.269 8.08154 18.3865 8.06669 18.503 8.07712C19.3128 8.07712 20.5099 8.66608 21.5538 9.58485C22.3018 10.2415 22.8908 10.9851 23.2117 11.6757C23.5062 12.3014 23.5342 12.8123 23.3016 13.0788C23.2174 13.1604 23.1166 13.223 23.006 13.2621C22.8955 13.3012 22.7778 13.3161 22.6611 13.3056Z" fill="url(#paint13_radial_11_22239)"/>
</g>
<path opacity="0.33" d="M23.3009 13.0731C23.5335 12.8066 23.5011 12.2957 23.2111 11.6699C23.1281 11.4934 23.0342 11.3223 22.9299 11.1575C21.8167 11.237 19.8732 11.3857 19.8732 11.3857C20.4739 12.2912 21.5355 12.9774 22.1068 13.2233C22.2875 13.2713 22.4734 13.297 22.6604 13.2998C22.7772 13.3103 22.8949 13.2954 23.0054 13.2563C23.1159 13.2172 23.2167 13.1547 23.3009 13.0731Z" fill="#231F1F"/>
<path d="M17.8486 11.9187C17.8179 11.9185 17.7875 11.9119 17.7594 11.8995C17.7313 11.8871 17.7061 11.8691 17.6852 11.8465C16.9416 11.0294 16.8017 10.3477 16.7929 10.3182C16.7833 10.2616 16.7961 10.2035 16.8287 10.1562C16.8612 10.1089 16.9109 10.0761 16.9672 10.0648C17.0235 10.0535 17.082 10.0646 17.1303 10.0957C17.1785 10.1267 17.2128 10.1754 17.2258 10.2313C17.2258 10.2431 17.3612 10.835 18.012 11.5565C18.0409 11.5881 18.0599 11.6275 18.0668 11.6698C18.0736 11.712 18.0681 11.7554 18.0507 11.7945C18.0334 11.8337 18.0051 11.867 17.9692 11.8903C17.9333 11.9137 17.8914 11.9261 17.8486 11.9261V11.9187Z" fill="url(#paint14_linear_11_22239)"/>
<path d="M22.3972 12.6048C21.6934 12.6048 20.7261 12.141 19.8736 11.3915C18.9901 10.6171 17.8637 9.09757 18.5175 8.25536L20.2961 4.95866L20.3285 4.9204C20.4531 4.79037 20.6047 4.68925 20.7726 4.62413C20.9405 4.55901 21.1206 4.53146 21.3003 4.54346C22.225 4.54346 23.5089 5.16333 24.6426 6.16309C25.4363 6.85952 26.0635 7.65314 26.4095 8.39965C26.782 9.2021 26.7894 9.87205 26.4301 10.2799L26.3874 10.3285L23.1481 12.3456C22.9419 12.5278 22.6719 12.6209 22.3972 12.6048Z" fill="#390176"/>
<path d="M18.8854 8.50859C18.4657 8.98563 19.2225 10.2386 20.1649 11.0661C20.9275 11.7361 21.8036 12.169 22.397 12.169C22.4825 12.177 22.5686 12.1663 22.6495 12.1375C22.7304 12.1088 22.804 12.0627 22.8652 12.0026L26.1045 9.99275C26.3371 9.72624 26.3048 9.21533 26.0147 8.58957C25.6937 7.89901 25.1048 7.15544 24.3568 6.49877C23.3128 5.58293 22.1158 4.99104 21.306 4.99104C21.1894 4.98059 21.072 4.99544 20.9617 5.03459C20.8514 5.07371 20.7509 5.13621 20.667 5.21779L18.8854 8.50859Z" fill="#B0895E"/>
<path opacity="0.33" d="M25.7286 8.0743C24.7627 8.28336 22.3215 9.25219 22.3215 9.25219C23.2727 9.94422 21.7664 11.5874 20.163 11.0603C20.9272 11.7302 21.8032 12.1631 22.3966 12.1631C22.4821 12.1712 22.5682 12.1605 22.6491 12.1317C22.73 12.103 22.8036 12.0569 22.8648 11.9967L26.1041 9.98694C26.3367 9.72043 26.3043 9.20949 26.0143 8.58373C25.9299 8.40805 25.8345 8.2379 25.7286 8.0743Z" fill="#231F1F"/>
<path d="M25.4578 10.6553C24.5332 10.6553 23.2493 10.0355 22.1155 9.03571C20.8493 7.92256 19.4652 5.90981 20.328 4.91299C20.4526 4.78299 20.6042 4.68187 20.7721 4.61675C20.94 4.55163 21.1201 4.52408 21.2998 4.53605C22.2245 4.53605 23.5084 5.15595 24.6421 6.15571C25.4358 6.85213 26.063 7.64576 26.409 8.39227C26.7815 9.19472 26.7889 9.86467 26.4296 10.2725C26.2176 10.5287 25.8834 10.6553 25.4578 10.6553Z" fill="#390176"/>
<path d="M25.4578 10.2136C24.648 10.2136 23.451 9.6247 22.407 8.70592C21.1216 7.57659 20.088 5.86419 20.6608 5.21192C20.7447 5.13035 20.8452 5.06787 20.9555 5.02872C21.0658 4.9896 21.1832 4.97475 21.2998 4.98518C22.1096 4.98518 23.3067 5.57414 24.3506 6.49291C25.0986 7.1496 25.6875 7.89315 26.0085 8.58371C26.303 9.20947 26.331 9.7204 26.0983 9.98688C26.0141 10.0685 25.9133 10.131 25.8028 10.1701C25.6923 10.2093 25.5746 10.2241 25.4578 10.2136Z" fill="#FFDA7F"/>
<path opacity="0.33" d="M26.0087 8.58366C25.8635 8.27976 25.6889 7.9908 25.4875 7.72083C25.5714 7.86806 25.6495 8.00352 25.7143 8.14192C26.0087 8.76771 26.0367 9.27862 25.8041 9.54512C25.7199 9.62672 25.6191 9.68923 25.5086 9.72835C25.3981 9.7675 25.2804 9.78232 25.1636 9.77187C24.3538 9.77187 23.1567 9.18291 22.1128 8.26414C21.6872 7.88912 21.3036 7.46899 20.9688 7.01112C21.3621 7.64387 21.8469 8.21494 22.4073 8.70587C23.4512 9.62168 24.6483 10.2136 25.4581 10.2136C25.5749 10.2241 25.6925 10.2092 25.803 10.1701C25.9136 10.1309 26.0144 10.0685 26.0986 9.98683C26.3312 9.72035 26.2988 9.20942 26.0087 8.58366Z" fill="#231F1F"/>
<path d="M20.7188 7.16581L19.9958 8.97098L21.1193 7.70914L23.1261 7.5884L20.7188 7.16581Z" fill="#390176"/>
<path d="M22.2267 6.55501C22.3341 6.43283 22.1982 6.138 21.9232 5.89653C21.6483 5.65507 21.3384 5.5584 21.2311 5.68059C21.1237 5.8028 21.2596 6.0976 21.5346 6.33907C21.8095 6.58053 22.1194 6.67723 22.2267 6.55501Z" fill="#E4AB5C"/>
<path d="M24.2068 7.34395C24.3624 7.16678 24.1651 6.73907 23.7661 6.38867C23.3672 6.0383 22.9176 5.89787 22.762 6.07507C22.6063 6.25227 22.8036 6.67995 23.2026 7.03035C23.6016 7.38075 24.0512 7.52115 24.2068 7.34395Z" fill="#E4AB5C"/>
<path d="M25.2357 8.98712C25.3086 8.90403 25.2157 8.70312 25.0282 8.53838C24.8406 8.37363 24.6294 8.30747 24.5564 8.39056C24.4834 8.47366 24.5763 8.67456 24.7639 8.83928C24.9515 9.00403 25.1627 9.07022 25.2357 8.98712Z" fill="#E4AB5C"/>
<defs>
<radialGradient id="paint0_radial_11_22239" cx="0" cy="0" r="1" gradientUnits="userSpaceOnUse" gradientTransform="translate(8.43467 24.2015) scale(18.0383 18.0383)">
<stop stop-color="#2833D5"/>
<stop offset="0.39" stop-color="#5176DC"/>
<stop offset="0.81" stop-color="#78B7E2"/>
<stop offset="1" stop-color="#87D0E5"/>
</radialGradient>
<radialGradient id="paint1_radial_11_22239" cx="0" cy="0" r="1" gradientUnits="userSpaceOnUse" gradientTransform="translate(8.43467 24.2015) scale(18.0383 18.0383)">
<stop stop-color="#2833D5"/>
<stop offset="0.39" stop-color="#5176DC"/>
<stop offset="0.81" stop-color="#78B7E2"/>
<stop offset="1" stop-color="#87D0E5"/>
</radialGradient>
<linearGradient id="paint2_linear_11_22239" x1="7.33279" y1="19.9153" x2="18.8484" y2="19.9153" gradientUnits="userSpaceOnUse">
<stop stop-color="#3DE2F0"/>
<stop offset="0.1" stop-color="#45C4F1"/>
<stop offset="0.29" stop-color="#5191F4"/>
<stop offset="0.46" stop-color="#5A6DF6"/>
<stop offset="0.59" stop-color="#6056F7"/>
<stop offset="0.68" stop-color="#624EF7"/>
<stop offset="1" stop-color="#2827F7"/>
</linearGradient>
<linearGradient id="paint3_linear_11_22239" x1="12.1976" y1="15.7852" x2="19.1355" y2="15.7852" gradientUnits="userSpaceOnUse">
<stop stop-color="#62C1F6"/>
<stop offset="0.32" stop-color="#5969F6"/>
<stop offset="0.74" stop-color="#9E69E6"/>
<stop offset="1" stop-color="#6151ED"/>
</linearGradient>
<linearGradient id="paint4_linear_11_22239" x1="10.3859" y1="19.0153" x2="15.3007" y2="13.9365" gradientUnits="userSpaceOnUse">
<stop stop-color="white" stop-opacity="0"/>
<stop offset="0.22" stop-color="white" stop-opacity="0.24"/>
<stop offset="0.6" stop-color="white" stop-opacity="0.64"/>
<stop offset="0.87" stop-color="white" stop-opacity="0.9"/>
<stop offset="1" stop-color="white"/>
</linearGradient>
<linearGradient id="paint5_linear_11_22239" x1="9.84159" y1="22.5066" x2="9.34098" y2="22.5066" gradientUnits="userSpaceOnUse">
<stop offset="0.29" stop-color="white"/>
<stop offset="0.78" stop-color="white" stop-opacity="0"/>
</linearGradient>
<linearGradient id="paint6_linear_11_22239" x1="10.725" y1="21.5526" x2="10.1139" y2="21.5526" gradientUnits="userSpaceOnUse">
<stop offset="0.29" stop-color="white"/>
<stop offset="0.78" stop-color="white" stop-opacity="0"/>
</linearGradient>
<linearGradient id="paint7_linear_11_22239" x1="9.84212" y1="20.8165" x2="9.23108" y2="20.8165" gradientUnits="userSpaceOnUse">
<stop offset="0.29" stop-color="white"/>
<stop offset="0.78" stop-color="white" stop-opacity="0"/>
</linearGradient>
<linearGradient id="paint8_linear_11_22239" x1="11.7562" y1="20.2304" x2="10.9242" y2="20.2304" gradientUnits="userSpaceOnUse">
<stop offset="0.29" stop-color="white"/>
<stop offset="0.78" stop-color="white" stop-opacity="0"/>
</linearGradient>
<radialGradient id="paint9_radial_11_22239" cx="0" cy="0" r="1" gradientUnits="userSpaceOnUse" gradientTransform="translate(22.6825 15.4553) scale(9.38357 9.38355)">
<stop stop-color="#2833D5"/>
<stop offset="0.39" stop-color="#5176DC"/>
<stop offset="0.81" stop-color="#78B7E2"/>
<stop offset="1" stop-color="#87D0E5"/>
</radialGradient>
<radialGradient id="paint10_radial_11_22239" cx="0" cy="0" r="1" gradientUnits="userSpaceOnUse" gradientTransform="translate(22.6832 15.4553) scale(9.38358 9.38355)">
<stop stop-color="#2833D5"/>
<stop offset="0.39" stop-color="#5176DC"/>
<stop offset="0.81" stop-color="#78B7E2"/>
<stop offset="1" stop-color="#87D0E5"/>
</radialGradient>
<radialGradient id="paint11_radial_11_22239" cx="0" cy="0" r="1" gradientUnits="userSpaceOnUse" gradientTransform="translate(22.6825 15.4553) scale(9.38357 9.38355)">
<stop stop-color="#2833D5"/>
<stop offset="0.39" stop-color="#5176DC"/>
<stop offset="0.81" stop-color="#78B7E2"/>
<stop offset="1" stop-color="#87D0E5"/>
</radialGradient>
<radialGradient id="paint12_radial_11_22239" cx="0" cy="0" r="1" gradientUnits="userSpaceOnUse" gradientTransform="translate(22.6832 15.4553) scale(9.38358 9.38355)">
<stop stop-color="#2833D5"/>
<stop offset="0.39" stop-color="#5176DC"/>
<stop offset="0.81" stop-color="#78B7E2"/>
<stop offset="1" stop-color="#87D0E5"/>
</radialGradient>
<radialGradient id="paint13_radial_11_22239" cx="0" cy="0" r="1" gradientUnits="userSpaceOnUse" gradientTransform="translate(22.6832 15.4553) scale(9.38358 9.38355)">
<stop stop-color="#2833D5"/>
<stop offset="0.39" stop-color="#5176DC"/>
<stop offset="0.81" stop-color="#78B7E2"/>
<stop offset="1" stop-color="#87D0E5"/>
</radialGradient>
<linearGradient id="paint14_linear_11_22239" x1="16.7368" y1="10.9338" x2="18.1197" y2="11.0397" gradientUnits="userSpaceOnUse">
<stop stop-color="white"/>
<stop offset="0.13" stop-color="white" stop-opacity="0.9"/>
<stop offset="0.4" stop-color="white" stop-opacity="0.64"/>
<stop offset="0.78" stop-color="white" stop-opacity="0.24"/>
<stop offset="1" stop-color="white" stop-opacity="0"/>
</linearGradient>
</defs>
</svg>
