<svg width="20" height="20" viewBox="0 0 20 20" fill="none" xmlns="http://www.w3.org/2000/svg">
<path d="M16.1933 5.24886C15.9771 4.7823 15.5851 4.28628 15.0891 3.85101C14.3786 3.22708 13.578 2.83875 13.0001 2.83875C12.967 2.83875 12.9348 2.83875 12.9081 2.83875C12.7393 2.84461 12.5773 2.90681 12.4479 3.01543C12.4283 3.03261 12.4099 3.05101 12.3927 3.07065L12.3725 3.09456L12.367 3.10378C12.3225 3.16078 12.288 3.22486 12.2648 3.29335L11.5286 4.65438C11.4374 4.63886 11.3451 4.63056 11.2525 4.62955C11.143 4.62875 11.0339 4.64361 10.9286 4.67371L10.8936 4.68383L10.8504 4.7004L10.7989 4.72156L10.7758 4.73353C10.7556 4.74365 10.7354 4.7547 10.717 4.76573L10.7068 4.77218C10.6857 4.78598 10.6654 4.79978 10.647 4.8136C10.6122 4.84141 10.5799 4.8722 10.5504 4.90561L9.72218 5.73383L9.71665 5.74028C9.50868 5.97678 9.47278 6.29243 9.55745 6.64396L4.42617 11.8452C3.45715 12.8142 3.35683 14.2894 4.20255 15.1351C4.39258 15.3212 4.61762 15.4679 4.86465 15.5666C5.11167 15.6653 5.37582 15.7141 5.6418 15.7102C6.34022 15.697 7.00537 15.4094 7.49333 14.9096L12.7903 9.54089C12.867 9.55246 12.9446 9.55831 13.0222 9.55838C13.3976 9.55838 13.6121 9.41021 13.7271 9.2823L14.5075 8.50193C14.5185 8.49181 14.5277 8.48168 14.5369 8.47156L14.5553 8.45316L14.5617 8.44671C14.5781 8.42795 14.5935 8.40828 14.6078 8.38783C14.7268 8.2141 14.7803 8.00375 14.7587 7.79426C14.7481 7.65636 14.7203 7.52033 14.6758 7.38936L15.9384 6.60623C16.0248 6.57488 16.1038 6.526 16.1703 6.46266L16.1795 6.45623L16.2062 6.42586C16.4308 6.1682 16.4262 5.7504 16.1933 5.24886Z" fill="#390176"/>
<path d="M5.6418 15.7102C5.37582 15.7141 5.11167 15.6653 4.86465 15.5666C4.61762 15.4679 4.39258 15.3212 4.20255 15.1351C3.35683 14.2894 3.45715 12.8142 4.42617 11.8452L10.4906 5.69885L13.5568 8.76512L7.49335 14.9096C7.00537 15.4094 6.34022 15.697 5.6418 15.7102Z" fill="#390176"/>
<path d="M7.29615 14.7154C6.43387 15.5777 5.13634 15.678 4.39737 14.9399C3.65842 14.2019 3.75872 12.9025 4.62099 12.0402L10.4922 6.09087L13.1673 8.76602L7.29615 14.7154Z" fill="#BCFFFF"/>
<g opacity="0.64">
<path d="M5.64206 15.2041C5.44245 15.2078 5.24408 15.1719 5.05836 15.0986C4.87265 15.0253 4.70323 14.9161 4.55986 14.7772C3.9157 14.133 4.01323 12.9744 4.7844 12.2005L10.4899 6.41489L12.8393 8.76427L7.13378 14.5517C6.74168 14.9569 6.20575 15.1913 5.64206 15.2041Z" fill="url(#paint0_radial_11_23482)"/>
</g>
<g style="mix-blend-mode:color-dodge" opacity="0.2">
<path d="M5.64206 15.2041C5.44245 15.2078 5.24408 15.1719 5.05836 15.0986C4.87265 15.0253 4.70323 14.9161 4.55986 14.7772C3.9157 14.133 4.01323 12.9744 4.7844 12.2005L10.4899 6.41489L12.8393 8.76427L7.13378 14.5517C6.74168 14.9569 6.20575 15.1913 5.64206 15.2041Z" fill="url(#paint1_radial_11_23482)"/>
</g>
<path d="M7.26595 9.68806L4.78129 12.2031C4.01012 12.9743 3.90889 14.1292 4.55674 14.7798C4.70012 14.9187 4.86954 15.028 5.05525 15.1012C5.24097 15.1745 5.43934 15.2104 5.63895 15.2068C6.20192 15.1944 6.7374 14.961 7.12975 14.5571L11.7844 9.83991L7.26595 9.68806Z" fill="#390176"/>
<path d="M5.64157 15.0661C5.46097 15.0691 5.28155 15.0365 5.11353 14.9702C4.94553 14.9039 4.79225 14.8051 4.66243 14.6795C4.06795 14.0851 4.16825 13.0231 4.88605 12.3007L7.32102 9.82709L11.4722 9.9642L7.03942 14.4568C6.67193 14.8362 6.16958 15.0551 5.64157 15.0661Z" fill="url(#paint2_linear_11_23482)"/>
<path d="M7.26594 9.68812C7.05521 9.89609 7.05521 10.3056 8.89571 10.4482C11.2883 10.6323 11.7485 9.98812 11.7871 9.83719C11.835 9.65314 11.1963 9.25192 9.63189 9.25192C8.06747 9.25192 7.47576 9.48014 7.26594 9.68812Z" fill="#390176"/>
<path d="M9.69543 10.3424C9.45065 10.3424 9.18561 10.3314 8.90585 10.3102C7.49511 10.2016 7.33223 9.94672 7.31383 9.89612C7.29543 9.8455 7.33776 9.81054 7.3626 9.7866C7.5126 9.63844 8.00678 9.38997 9.63193 9.38997C10.981 9.38997 11.569 9.69365 11.6473 9.81605C11.5994 9.89979 11.2709 10.3424 9.69543 10.3424Z" fill="url(#paint3_linear_11_23482)"/>
<path opacity="0.33" d="M7.13274 14.5544L12.8383 8.76695L12.2088 8.14761C11.3907 8.98413 10.257 10.1786 8.89592 11.6445C7.48242 13.1657 6.66709 14.12 5.95114 14.4973C5.45697 14.7577 4.76587 14.6878 4.38672 14.5663C4.43692 14.6416 4.49392 14.7122 4.55697 14.7771C4.70034 14.916 4.86975 15.0253 5.05547 15.0985C5.24119 15.1718 5.43955 15.2077 5.63917 15.2041C6.2031 15.1924 6.73972 14.9589 7.13274 14.5544Z" fill="#231F1F"/>
<path d="M9.67803 8.69975C9.90673 8.69975 10.0921 8.51434 10.0921 8.28564C10.0921 8.05692 9.90673 7.87152 9.67803 7.87152C9.44932 7.87152 9.26392 8.05692 9.26392 8.28564C9.26392 8.51434 9.44932 8.69975 9.67803 8.69975Z" fill="#FFFAE4"/>
<path d="M6.18098 11.3041C6.10459 11.3831 6.06269 11.4891 6.06451 11.599C6.06631 11.7088 6.11169 11.8135 6.19064 11.8899C6.26959 11.9662 6.37566 12.0081 6.48551 12.0063C6.59536 12.0045 6.69999 11.9591 6.77638 11.8802L9.27116 9.30351C9.34354 9.22395 9.38213 9.11933 9.37873 9.01181C9.37534 8.90431 9.33024 8.80233 9.25301 8.72748C9.17576 8.65263 9.07243 8.61076 8.96486 8.61076C8.85729 8.61075 8.75394 8.6526 8.67669 8.72743L6.18098 11.3041Z" fill="url(#paint4_linear_11_23482)"/>
<path opacity="0.2" d="M5.62986 14.2692C5.74472 14.2692 5.83784 14.176 5.83784 14.0612C5.83784 13.9463 5.74472 13.8532 5.62986 13.8532C5.51499 13.8532 5.42188 13.9463 5.42188 14.0612C5.42188 14.176 5.51499 14.2692 5.62986 14.2692Z" fill="white"/>
<g opacity="0.4">
<path opacity="0.6" d="M5.74738 14.1918C5.76683 14.1726 5.78226 14.1497 5.79281 14.1245C5.80335 14.0993 5.80878 14.0723 5.80878 14.045C5.80878 14.0177 5.80335 13.9906 5.79281 13.9654C5.78226 13.9402 5.76683 13.9174 5.74738 13.8982C5.7345 13.8847 5.7192 13.8738 5.70228 13.866C5.72885 13.8769 5.75341 13.8921 5.77498 13.9111C5.81386 13.9502 5.8357 14.0032 5.8357 14.0583C5.8357 14.1135 5.81386 14.1664 5.77498 14.2056C5.74245 14.2388 5.6996 14.26 5.65346 14.2657C5.60731 14.2713 5.56061 14.2612 5.521 14.2369C5.55878 14.2536 5.6008 14.2582 5.64131 14.2501C5.68183 14.2421 5.71888 14.2217 5.74738 14.1918Z" fill="url(#paint5_linear_11_23482)"/>
</g>
<path opacity="0.3" d="M5.55804 13.9977C5.58294 13.9977 5.60312 13.9775 5.60312 13.9526C5.60312 13.9277 5.58294 13.9075 5.55804 13.9075C5.53314 13.9075 5.51294 13.9277 5.51294 13.9526C5.51294 13.9775 5.53314 13.9977 5.55804 13.9977Z" fill="white"/>
<path opacity="0.2" d="M6.13582 13.7169C6.2761 13.7169 6.38982 13.6032 6.38982 13.463C6.38982 13.3227 6.2761 13.209 6.13582 13.209C5.99555 13.209 5.88184 13.3227 5.88184 13.463C5.88184 13.6032 5.99555 13.7169 6.13582 13.7169Z" fill="white"/>
<g opacity="0.4">
<path opacity="0.6" d="M6.28015 13.6231C6.3038 13.5996 6.32257 13.5717 6.33537 13.5409C6.34819 13.5101 6.35477 13.477 6.35477 13.4437C6.35477 13.4103 6.34819 13.3773 6.33537 13.3465C6.32257 13.3157 6.3038 13.2878 6.28015 13.2642C6.26409 13.2483 6.24542 13.2352 6.22494 13.2256C6.25872 13.2382 6.2899 13.257 6.31697 13.2808C6.36085 13.3246 6.3872 13.383 6.39104 13.4449C6.39487 13.5067 6.37594 13.5679 6.33779 13.6168C6.29965 13.6657 6.24494 13.6989 6.18399 13.7103C6.12302 13.7216 6.06 13.7103 6.00684 13.6784C6.05267 13.6977 6.10325 13.7027 6.152 13.6929C6.20075 13.683 6.24542 13.6587 6.28015 13.6231Z" fill="url(#paint6_linear_11_23482)"/>
</g>
<path opacity="0.3" d="M6.04765 13.3856C6.07815 13.3856 6.10286 13.3609 6.10286 13.3304C6.10286 13.2999 6.07815 13.2752 6.04765 13.2752C6.01715 13.2752 5.99243 13.2999 5.99243 13.3304C5.99243 13.3609 6.01715 13.3856 6.04765 13.3856Z" fill="white"/>
<path opacity="0.2" d="M5.58382 13.2567C5.7241 13.2567 5.83782 13.143 5.83782 13.0028C5.83782 12.8625 5.7241 12.7488 5.58382 12.7488C5.44355 12.7488 5.32983 12.8625 5.32983 13.0028C5.32983 13.143 5.44355 13.2567 5.58382 13.2567Z" fill="white"/>
<g opacity="0.4">
<path opacity="0.6" d="M5.72838 13.1631C5.75203 13.1396 5.77081 13.1116 5.78361 13.0808C5.79641 13.05 5.80301 13.017 5.80301 12.9836C5.80301 12.9503 5.79641 12.9173 5.78361 12.8865C5.77081 12.8557 5.75203 12.8277 5.72838 12.8042C5.71233 12.7882 5.69364 12.7752 5.67318 12.7655C5.70694 12.7782 5.73814 12.7969 5.76519 12.8207C5.80908 12.8646 5.83543 12.9229 5.83926 12.9848C5.84311 13.0467 5.82416 13.1078 5.78603 13.1567C5.74789 13.2056 5.69318 13.2389 5.63221 13.2502C5.57124 13.2616 5.50824 13.2502 5.45508 13.2183C5.50091 13.2376 5.5515 13.2427 5.60025 13.2328C5.64899 13.223 5.69364 13.1987 5.72838 13.1631Z" fill="url(#paint7_linear_11_23482)"/>
</g>
<path opacity="0.3" d="M5.4954 12.9256C5.5259 12.9256 5.55062 12.9009 5.55062 12.8704C5.55062 12.8399 5.5259 12.8152 5.4954 12.8152C5.4649 12.8152 5.44019 12.8399 5.44019 12.8704C5.44019 12.9009 5.4649 12.9256 5.4954 12.9256Z" fill="white"/>
<path opacity="0.2" d="M6.68804 12.9808C6.87914 12.9808 7.03406 12.8259 7.03406 12.6348C7.03406 12.4437 6.87914 12.2888 6.68804 12.2888C6.49694 12.2888 6.34204 12.4437 6.34204 12.6348C6.34204 12.8259 6.49694 12.9808 6.68804 12.9808Z" fill="white"/>
<g opacity="0.4">
<path opacity="0.6" d="M6.8842 12.8529C6.91635 12.8208 6.94188 12.7826 6.95928 12.7406C6.9767 12.6986 6.98565 12.6536 6.98565 12.6081C6.98565 12.5627 6.9767 12.5176 6.95928 12.4756C6.94188 12.4336 6.91635 12.3955 6.8842 12.3633C6.86231 12.3416 6.83676 12.3238 6.80873 12.3109C6.85315 12.3285 6.89398 12.3541 6.92928 12.3863C6.98883 12.446 7.02458 12.5253 7.02978 12.6094C7.035 12.6936 7.00933 12.7767 6.95758 12.8432C6.90585 12.9098 6.8316 12.9551 6.74878 12.9708C6.66598 12.9865 6.58028 12.9714 6.50781 12.9284C6.57076 12.9556 6.64055 12.963 6.7078 12.9495C6.77506 12.936 6.8366 12.9023 6.8842 12.8529Z" fill="url(#paint8_linear_11_23482)"/>
</g>
<path opacity="0.3" d="M6.56839 12.5289C6.61005 12.5289 6.64385 12.4951 6.64385 12.4534C6.64385 12.4117 6.61005 12.378 6.56839 12.378C6.5267 12.378 6.49292 12.4117 6.49292 12.4534C6.49292 12.4951 6.5267 12.5289 6.56839 12.5289Z" fill="white"/>
<path d="M13.0219 9.55837C12.4118 9.55837 11.5762 9.15807 10.8418 8.51297C9.86729 7.65714 9.1403 6.39641 9.71269 5.74487L9.71822 5.73844L10.5464 4.91022C10.6615 4.78322 10.8759 4.63414 11.2504 4.63414C11.8605 4.63414 12.6961 5.03446 13.4305 5.67954C13.9403 6.12677 14.3443 6.64027 14.5688 7.12341C14.8265 7.67556 14.8237 8.14764 14.5605 8.44764L14.5541 8.45407L13.7259 9.28231C13.6109 9.40929 13.3964 9.55837 13.021 9.55837H13.0219Z" fill="#390176"/>
<path d="M9.9201 5.9271C9.53452 6.36699 10.0287 7.4317 11.0244 8.30594C12.0201 9.18017 13.141 9.53262 13.5256 9.09367L14.3539 8.26545C14.7394 7.82649 14.2453 6.76177 13.2496 5.88662C12.2539 5.01145 11.133 4.65992 10.7483 5.09889L9.9201 5.9271Z" fill="#BCFFFF"/>
<g opacity="0.64">
<path d="M13.0219 9.14424C12.5158 9.14424 11.7676 8.77616 11.1152 8.20192C10.3118 7.49609 9.6658 6.42584 10.0238 6.01817L10.8456 5.19639C10.8983 5.14359 10.962 5.10297 11.0321 5.07737C11.1022 5.05179 11.177 5.04184 11.2514 5.04824C11.7575 5.04824 12.5057 5.41634 13.1581 5.99057C13.6256 6.40099 13.9937 6.86572 14.1943 7.29731C14.3784 7.68842 14.3959 8.00774 14.2505 8.17431L13.4278 8.99886C13.3751 9.05171 13.3114 9.09236 13.2413 9.11796C13.1712 9.14356 13.0963 9.15347 13.0219 9.14701V9.14424Z" fill="url(#paint9_radial_11_23482)"/>
</g>
<g opacity="0.64">
<path d="M13.8505 8.31599C13.3444 8.31599 12.5962 7.94789 11.9438 7.37366C11.1404 6.66783 10.4944 5.59759 10.8524 5.18993C10.9048 5.13894 10.9677 5.09988 11.0366 5.07543C11.1055 5.05096 11.1789 5.04168 11.2518 5.04819C11.7579 5.04819 12.5061 5.41629 13.1585 5.99053C13.626 6.40096 13.9941 6.86569 14.1947 7.29728C14.3788 7.68838 14.3962 8.00771 14.2508 8.17428C14.1982 8.22528 14.1352 8.26434 14.0661 8.28879C13.9971 8.31326 13.9235 8.32253 13.8505 8.31599Z" fill="url(#paint10_radial_11_23482)"/>
</g>
<g style="mix-blend-mode:color-dodge" opacity="0.2">
<path d="M13.0219 9.14424C12.5158 9.14424 11.7676 8.77616 11.1152 8.20192C10.3118 7.49609 9.6658 6.42584 10.0238 6.01817L10.8456 5.19639C10.8983 5.14359 10.962 5.10297 11.0321 5.07737C11.1022 5.05179 11.177 5.04184 11.2514 5.04824C11.7575 5.04824 12.5057 5.41634 13.1581 5.99057C13.6256 6.40099 13.9937 6.86572 14.1943 7.29731C14.3784 7.68842 14.3959 8.00774 14.2505 8.17431L13.4278 8.99886C13.3751 9.05171 13.3114 9.09236 13.2413 9.11796C13.1712 9.14356 13.0963 9.15347 13.0219 9.14701V9.14424Z" fill="url(#paint11_radial_11_23482)"/>
</g>
<path d="M14.5616 8.44675C14.4485 8.57652 14.2331 8.7302 13.8503 8.7302C13.8015 8.7302 13.7518 8.7302 13.7012 8.72284C13.2919 8.66594 12.8986 8.52595 12.5454 8.31149C12.2331 8.13284 11.9399 7.92285 11.6702 7.6848C10.5245 6.67805 10.0386 5.48817 10.5411 4.9167C10.6543 4.78787 10.8696 4.63327 11.2515 4.63327C11.8616 4.63327 12.6972 5.03449 13.4316 5.67959C13.9414 6.12682 14.3454 6.6394 14.5699 7.12252C14.8276 7.67835 14.8248 8.1486 14.5616 8.44675Z" fill="#390176"/>
<path opacity="0.33" d="M13.7013 8.72282L13.4252 8.99889C13.3727 9.05205 13.3091 9.09299 13.239 9.11875C13.1688 9.14454 13.0938 9.1545 13.0194 9.14797C12.7433 9.14797 12.4038 9.03939 12.0439 8.85166L12.5427 8.31516C12.897 8.52867 13.2913 8.6674 13.7013 8.72282Z" fill="#231F1F"/>
<path d="M14.3537 8.26262C14.2559 8.3686 14.122 8.43425 13.9783 8.44667C13.6553 8.48808 13.2108 8.36477 12.7378 8.10525C12.4209 7.92855 12.1241 7.71813 11.8525 7.47765C10.8568 6.60342 10.3626 5.53868 10.7482 5.09973C11.1338 4.66078 12.2537 5.01323 13.2494 5.88747C14.2451 6.7617 14.7402 7.82642 14.3537 8.26262Z" fill="#BCFFFF"/>
<g opacity="0.64">
<path d="M13.8505 8.31599C13.3444 8.31599 12.5962 7.94789 11.9438 7.37366C11.1404 6.66783 10.4944 5.59759 10.8524 5.18993C10.9048 5.13894 10.9677 5.09988 11.0366 5.07543C11.1055 5.05096 11.1789 5.04168 11.2518 5.04819C11.7579 5.04819 12.5061 5.41629 13.1585 5.99053C13.626 6.40096 13.9941 6.86569 14.1947 7.29728C14.3788 7.68838 14.3962 8.00771 14.2508 8.17428C14.1982 8.22528 14.1352 8.26434 14.0661 8.28879C13.9971 8.31326 13.9235 8.32253 13.8505 8.31599Z" fill="url(#paint12_radial_11_23482)"/>
</g>
<g style="mix-blend-mode:color-dodge" opacity="0.2">
<path d="M13.8505 8.31599C13.3444 8.31599 12.5962 7.94789 11.9438 7.37366C11.1404 6.66783 10.4944 5.59759 10.8524 5.18993C10.9048 5.13894 10.9677 5.09988 11.0366 5.07543C11.1055 5.05096 11.1789 5.04168 11.2518 5.04819C11.7579 5.04819 12.5061 5.41629 13.1585 5.99053C13.626 6.40096 13.9941 6.86569 14.1947 7.29728C14.3788 7.68838 14.3962 8.00771 14.2508 8.17428C14.1982 8.22528 14.1352 8.26434 14.0661 8.28879C13.9971 8.31326 13.9235 8.32253 13.8505 8.31599Z" fill="url(#paint13_radial_11_23482)"/>
</g>
<path opacity="0.33" d="M14.2505 8.17067C14.3959 8.0041 14.3756 7.68479 14.1944 7.29368C14.1425 7.18338 14.0838 7.07642 14.0186 6.97343C13.3229 7.02312 12.1082 7.11607 12.1082 7.11607C12.4836 7.68202 13.1471 8.11085 13.5042 8.26454C13.6171 8.29457 13.7333 8.31063 13.8502 8.31238C13.9232 8.31892 13.9967 8.30965 14.0658 8.28519C14.1349 8.26074 14.1979 8.22167 14.2505 8.17067Z" fill="#231F1F"/>
<path d="M10.8429 7.44918C10.8237 7.44903 10.8047 7.44495 10.7872 7.4372C10.7696 7.42943 10.7538 7.41817 10.7408 7.40408C10.276 6.89335 10.1886 6.46728 10.1831 6.44888C10.1771 6.4135 10.1851 6.37717 10.2055 6.3476C10.2258 6.31805 10.2569 6.29757 10.292 6.2905C10.3272 6.28343 10.3638 6.29035 10.3939 6.30978C10.4241 6.32922 10.4455 6.35963 10.4536 6.39458C10.4536 6.40195 10.5383 6.77188 10.9451 7.2228C10.9631 7.24258 10.975 7.26718 10.9793 7.2936C10.9835 7.32002 10.9801 7.3471 10.9692 7.37157C10.9584 7.39605 10.9407 7.41685 10.9183 7.43145C10.8959 7.44603 10.8697 7.4538 10.8429 7.45378V7.44918Z" fill="url(#paint14_linear_11_23482)"/>
<path d="M13.6857 7.878C13.2458 7.878 12.6412 7.58813 12.1084 7.11971C11.5562 6.63566 10.8523 5.68598 11.2608 5.1596L12.3725 3.09916L12.3927 3.07525C12.4706 2.99398 12.5654 2.93078 12.6703 2.89008C12.7752 2.84938 12.8878 2.83216 13.0001 2.83966C13.578 2.83966 14.3805 3.22708 15.0891 3.85193C15.5851 4.2872 15.9771 4.78321 16.1934 5.24978C16.4262 5.75131 16.4308 6.17003 16.2062 6.42493L16.1796 6.4553L14.155 7.71603C14.0261 7.82985 13.8574 7.88808 13.6857 7.878Z" fill="#390176"/>
<path d="M11.4909 5.31787C11.2286 5.61602 11.7016 6.39915 12.2906 6.91633C12.7673 7.33503 13.3148 7.6056 13.6857 7.6056C13.7391 7.61063 13.7929 7.60393 13.8435 7.58597C13.894 7.56802 13.9401 7.53922 13.9783 7.5016L16.0028 6.24547C16.1482 6.0789 16.128 5.75958 15.9467 5.36848C15.7461 4.93688 15.378 4.47215 14.9105 4.06173C14.2581 3.48933 13.5099 3.1194 13.0038 3.1194C12.9309 3.11287 12.8575 3.12215 12.7886 3.14662C12.7197 3.17107 12.6568 3.21013 12.6044 3.26112L11.4909 5.31787Z" fill="#B0895E"/>
<path opacity="0.33" d="M15.7678 5.04643C15.1642 5.1771 13.6384 5.78262 13.6384 5.78262C14.2329 6.21513 13.2915 7.24213 12.2893 6.91268C12.7669 7.3314 13.3145 7.60195 13.6853 7.60195C13.7387 7.60698 13.7926 7.60028 13.8431 7.58233C13.8937 7.56437 13.9397 7.53557 13.978 7.49797L16.0025 6.24183C16.1479 6.07527 16.1277 5.75593 15.9464 5.36483C15.8936 5.25503 15.834 5.14868 15.7678 5.04643Z" fill="#231F1F"/>
<path d="M15.5988 6.65958C15.0209 6.65958 14.2184 6.27217 13.5098 5.64732C12.7184 4.9516 11.8534 3.69363 12.3926 3.07062C12.4705 2.98937 12.5653 2.92617 12.6702 2.88547C12.7751 2.84477 12.8877 2.82755 13 2.83503C13.5779 2.83503 14.3804 3.22247 15.089 3.84732C15.585 4.28258 15.977 4.7786 16.1933 5.24517C16.4261 5.7467 16.4307 6.16542 16.2061 6.42032C16.0736 6.58043 15.8647 6.65958 15.5988 6.65958Z" fill="#390176"/>
<path d="M15.5986 6.38351C15.0925 6.38351 14.3443 6.01543 13.6919 5.4412C12.8885 4.73536 12.2425 3.66511 12.6004 3.25745C12.6529 3.20646 12.7157 3.16741 12.7846 3.14295C12.8536 3.1185 12.927 3.10921 12.9998 3.11573C13.506 3.11573 14.2541 3.48383 14.9066 4.05806C15.3741 4.4685 15.7422 4.93321 15.9428 5.36481C16.1268 5.75591 16.1443 6.07525 15.9989 6.2418C15.9463 6.29281 15.8833 6.33186 15.8142 6.35633C15.7451 6.38078 15.6716 6.39006 15.5986 6.38351Z" fill="#FFDA7F"/>
<path opacity="0.33" d="M15.943 5.36478C15.8522 5.17484 15.7431 4.99424 15.6172 4.82551C15.6697 4.91753 15.7184 5.00219 15.7589 5.08869C15.943 5.47981 15.9605 5.79913 15.8151 5.96569C15.7624 6.01669 15.6994 6.05576 15.6304 6.08021C15.5613 6.10468 15.4877 6.11394 15.4148 6.10741C14.9086 6.10741 14.1605 5.73931 13.508 5.16508C13.242 4.93069 13.0023 4.66811 12.793 4.38194C13.0388 4.77741 13.3418 5.13433 13.6921 5.44116C14.3445 6.01354 15.0927 6.38349 15.5988 6.38349C15.6718 6.39003 15.7453 6.38074 15.8144 6.35629C15.8835 6.33183 15.9465 6.29278 15.9991 6.24176C16.1445 6.07521 16.1243 5.75588 15.943 5.36478Z" fill="#231F1F"/>
<path d="M12.6366 4.47864L12.1848 5.60687L12.887 4.81822L14.1412 4.74275L12.6366 4.47864Z" fill="#390176"/>
<path d="M13.5791 4.09688C13.6462 4.02052 13.5612 3.83625 13.3894 3.68533C13.2175 3.53442 13.0239 3.474 12.9568 3.55037C12.8897 3.62675 12.9746 3.811 13.1465 3.96192C13.3183 4.11283 13.512 4.17327 13.5791 4.09688Z" fill="#E4AB5C"/>
<path d="M14.8167 4.58997C14.9139 4.47924 14.7906 4.21192 14.5412 3.99292C14.2919 3.77394 14.0109 3.68617 13.9136 3.79692C13.8164 3.90767 13.9397 4.17497 14.189 4.39397C14.4384 4.61297 14.7194 4.70072 14.8167 4.58997Z" fill="#E4AB5C"/>
<path d="M15.4599 5.61695C15.5055 5.56502 15.4474 5.43945 15.3302 5.33648C15.213 5.23352 15.0809 5.19217 15.0353 5.2441C14.9897 5.29603 15.0478 5.4216 15.165 5.52455C15.2823 5.62752 15.4143 5.66888 15.4599 5.61695Z" fill="#E4AB5C"/>
<defs>
<radialGradient id="paint0_radial_11_23482" cx="0" cy="0" r="1" gradientUnits="userSpaceOnUse" gradientTransform="translate(4.95925 15.1259) scale(11.2739)">
<stop stop-color="#2833D5"/>
<stop offset="0.39" stop-color="#5176DC"/>
<stop offset="0.81" stop-color="#78B7E2"/>
<stop offset="1" stop-color="#87D0E5"/>
</radialGradient>
<radialGradient id="paint1_radial_11_23482" cx="0" cy="0" r="1" gradientUnits="userSpaceOnUse" gradientTransform="translate(4.95925 15.1259) scale(11.2739)">
<stop stop-color="#2833D5"/>
<stop offset="0.39" stop-color="#5176DC"/>
<stop offset="0.81" stop-color="#78B7E2"/>
<stop offset="1" stop-color="#87D0E5"/>
</radialGradient>
<linearGradient id="paint2_linear_11_23482" x1="4.2704" y1="12.447" x2="11.4676" y2="12.447" gradientUnits="userSpaceOnUse">
<stop stop-color="#3DE2F0"/>
<stop offset="0.1" stop-color="#45C4F1"/>
<stop offset="0.29" stop-color="#5191F4"/>
<stop offset="0.46" stop-color="#5A6DF6"/>
<stop offset="0.59" stop-color="#6056F7"/>
<stop offset="0.68" stop-color="#624EF7"/>
<stop offset="1" stop-color="#2827F7"/>
</linearGradient>
<linearGradient id="paint3_linear_11_23482" x1="7.31106" y1="9.86574" x2="11.6473" y2="9.86574" gradientUnits="userSpaceOnUse">
<stop stop-color="#62C1F6"/>
<stop offset="0.32" stop-color="#5969F6"/>
<stop offset="0.74" stop-color="#9E69E6"/>
<stop offset="1" stop-color="#6151ED"/>
</linearGradient>
<linearGradient id="paint4_linear_11_23482" x1="6.17869" y1="11.8845" x2="9.25046" y2="8.7103" gradientUnits="userSpaceOnUse">
<stop stop-color="white" stop-opacity="0"/>
<stop offset="0.22" stop-color="white" stop-opacity="0.24"/>
<stop offset="0.6" stop-color="white" stop-opacity="0.64"/>
<stop offset="0.87" stop-color="white" stop-opacity="0.9"/>
<stop offset="1" stop-color="white"/>
</linearGradient>
<linearGradient id="paint5_linear_11_23482" x1="5.83848" y1="14.0666" x2="5.5256" y2="14.0666" gradientUnits="userSpaceOnUse">
<stop offset="0.29" stop-color="white"/>
<stop offset="0.78" stop-color="white" stop-opacity="0"/>
</linearGradient>
<linearGradient id="paint6_linear_11_23482" x1="6.39059" y1="13.4704" x2="6.00869" y2="13.4704" gradientUnits="userSpaceOnUse">
<stop offset="0.29" stop-color="white"/>
<stop offset="0.78" stop-color="white" stop-opacity="0"/>
</linearGradient>
<linearGradient id="paint7_linear_11_23482" x1="5.83881" y1="13.0103" x2="5.45691" y2="13.0103" gradientUnits="userSpaceOnUse">
<stop offset="0.29" stop-color="white"/>
<stop offset="0.78" stop-color="white" stop-opacity="0"/>
</linearGradient>
<linearGradient id="paint8_linear_11_23482" x1="7.03511" y1="12.644" x2="6.51516" y2="12.644" gradientUnits="userSpaceOnUse">
<stop offset="0.29" stop-color="white"/>
<stop offset="0.78" stop-color="white" stop-opacity="0"/>
</linearGradient>
<radialGradient id="paint9_radial_11_23482" cx="0" cy="0" r="1" gradientUnits="userSpaceOnUse" gradientTransform="translate(13.864 9.65959) scale(5.86473 5.86472)">
<stop stop-color="#2833D5"/>
<stop offset="0.39" stop-color="#5176DC"/>
<stop offset="0.81" stop-color="#78B7E2"/>
<stop offset="1" stop-color="#87D0E5"/>
</radialGradient>
<radialGradient id="paint10_radial_11_23482" cx="0" cy="0" r="1" gradientUnits="userSpaceOnUse" gradientTransform="translate(13.8643 9.65954) scale(5.86473 5.86472)">
<stop stop-color="#2833D5"/>
<stop offset="0.39" stop-color="#5176DC"/>
<stop offset="0.81" stop-color="#78B7E2"/>
<stop offset="1" stop-color="#87D0E5"/>
</radialGradient>
<radialGradient id="paint11_radial_11_23482" cx="0" cy="0" r="1" gradientUnits="userSpaceOnUse" gradientTransform="translate(13.864 9.65959) scale(5.86473 5.86472)">
<stop stop-color="#2833D5"/>
<stop offset="0.39" stop-color="#5176DC"/>
<stop offset="0.81" stop-color="#78B7E2"/>
<stop offset="1" stop-color="#87D0E5"/>
</radialGradient>
<radialGradient id="paint12_radial_11_23482" cx="0" cy="0" r="1" gradientUnits="userSpaceOnUse" gradientTransform="translate(13.8643 9.65954) scale(5.86473 5.86472)">
<stop stop-color="#2833D5"/>
<stop offset="0.39" stop-color="#5176DC"/>
<stop offset="0.81" stop-color="#78B7E2"/>
<stop offset="1" stop-color="#87D0E5"/>
</radialGradient>
<radialGradient id="paint13_radial_11_23482" cx="0" cy="0" r="1" gradientUnits="userSpaceOnUse" gradientTransform="translate(13.8643 9.65954) scale(5.86473 5.86472)">
<stop stop-color="#2833D5"/>
<stop offset="0.39" stop-color="#5176DC"/>
<stop offset="0.81" stop-color="#78B7E2"/>
<stop offset="1" stop-color="#87D0E5"/>
</radialGradient>
<linearGradient id="paint14_linear_11_23482" x1="10.148" y1="6.8336" x2="11.0123" y2="6.8998" gradientUnits="userSpaceOnUse">
<stop stop-color="white"/>
<stop offset="0.13" stop-color="white" stop-opacity="0.9"/>
<stop offset="0.4" stop-color="white" stop-opacity="0.64"/>
<stop offset="0.78" stop-color="white" stop-opacity="0.24"/>
<stop offset="1" stop-color="white" stop-opacity="0"/>
</linearGradient>
</defs>
</svg>
