<svg width="20" height="20" viewBox="0 0 20 20" fill="none" xmlns="http://www.w3.org/2000/svg">
<mask id="mask0_11_22164" style="mask-type:alpha" maskUnits="userSpaceOnUse" x="0" y="0" width="20" height="20">
<rect width="20" height="20" fill="#D9D9D9"/>
</mask>
<g mask="url(#mask0_11_22164)">
<path d="M3.33333 11.2708L5.4375 9.16667L3.33333 7.0625L1.22917 9.16667L3.33333 11.2708ZM14.5833 10.8333L16.6667 7.5L18.75 10.8333H14.5833ZM10 10C9.30556 10 8.71528 9.75694 8.22917 9.27083C7.74306 8.78472 7.5 8.19444 7.5 7.5C7.5 6.79167 7.74306 6.19792 8.22917 5.71875C8.71528 5.23958 9.30556 5 10 5C10.7083 5 11.3021 5.23958 11.7812 5.71875C12.2604 6.19792 12.5 6.79167 12.5 7.5C12.5 8.19444 12.2604 8.78472 11.7812 9.27083C11.3021 9.75694 10.7083 10 10 10ZM10 6.66667C9.76389 6.66667 9.56597 6.74653 9.40625 6.90625C9.24653 7.06597 9.16667 7.26389 9.16667 7.5C9.16667 7.73611 9.24653 7.93403 9.40625 8.09375C9.56597 8.25347 9.76389 8.33333 10 8.33333C10.2361 8.33333 10.434 8.25347 10.5938 8.09375C10.7535 7.93403 10.8333 7.73611 10.8333 7.5C10.8333 7.26389 10.7535 7.06597 10.5938 6.90625C10.434 6.74653 10.2361 6.66667 10 6.66667ZM0 15V13.6875C0 13.0764 0.309028 12.5868 0.927083 12.2188C1.54514 11.8507 2.34722 11.6667 3.33333 11.6667C3.51389 11.6667 3.6875 11.6701 3.85417 11.6771C4.02083 11.684 4.18056 11.7014 4.33333 11.7292C4.13889 12.0069 3.99306 12.3056 3.89583 12.625C3.79861 12.9444 3.75 13.2847 3.75 13.6458V15H0ZM5 15V13.6458C5 12.7431 5.46181 12.0139 6.38542 11.4583C7.30903 10.9028 8.51389 10.625 10 10.625C11.5 10.625 12.7083 10.9028 13.625 11.4583C14.5417 12.0139 15 12.7431 15 13.6458V15H5ZM16.6667 11.6667C17.6667 11.6667 18.4722 11.8507 19.0833 12.2188C19.6944 12.5868 20 13.0764 20 13.6875V15H16.25V13.6458C16.25 13.2847 16.2049 12.9444 16.1146 12.625C16.0243 12.3056 15.8889 12.0069 15.7083 11.7292C15.8611 11.7014 16.0174 11.684 16.1771 11.6771C16.3368 11.6701 16.5 11.6667 16.6667 11.6667ZM10 12.2917C9.20833 12.2917 8.5 12.3958 7.875 12.6042C7.25 12.8125 6.88194 13.0556 6.77083 13.3333H13.25C13.125 13.0556 12.7535 12.8125 12.1354 12.6042C11.5174 12.3958 10.8056 12.2917 10 12.2917Z" fill="#F7F7F7"/>
</g>
</svg>
