<svg width="49" height="48" viewBox="0 0 49 48" fill="none" xmlns="http://www.w3.org/2000/svg">
<path d="M16.5125 38.5542C16.5125 42.9736 20.0952 46.5562 24.5146 46.5562C28.9339 46.5562 32.5166 42.9736 32.5166 38.5542C32.5166 27.622 14.3061 27.6347 14.3061 16.1648C14.3061 10.9134 17.4913 8.38172 17.4913 8.38172C10.1422 11.205 4.92596 18.33 4.92596 26.6733C4.92596 33.5719 8.49175 39.6375 13.881 43.1273C14.1819 43.3223 14.5855 43.2192 14.7528 42.9019C14.901 42.6206 14.8082 42.2723 14.5382 42.1036C13.1305 41.2233 9.02846 38.2753 7.22096 32.8528C4.99065 26.1619 11.6582 17.8003 13.7117 20.227C14.9342 21.6717 14.923 25.5173 22.7919 29.4853C22.7919 29.4853 16.5125 32.4862 16.5125 38.5547V38.5542Z" fill="#F7F7F7"/>
<path d="M20.0436 8.38078C19.0653 9.06516 16.4835 11.4131 16.4835 14.7356C16.4835 25.6678 35.0122 25.9003 35.0122 37.3702C35.0122 42.6216 31.5092 44.9086 31.5092 44.9086C38.8583 42.0853 44.0746 34.9603 44.0746 26.617C44.0746 19.7184 40.5088 13.6528 35.1196 10.163C34.8186 9.96797 34.415 10.0711 34.2477 10.3884C34.0996 10.6697 34.1924 11.018 34.4624 11.1867C35.87 12.067 39.9721 15.015 41.7796 20.4375C44.0099 27.1284 37.3424 35.49 35.2888 33.0633C34.0663 31.6186 34.0775 27.773 26.2086 23.805C26.2086 23.805 32.488 20.8041 32.488 14.7356C32.488 12.6661 31.4783 10.6631 30.4396 9.38906C26.6263 4.71141 23.2921 1.44375 23.2921 1.44375C23.2921 1.44375 24.5924 3.37781 23.8588 4.77797C23.1252 6.17813 21.455 7.39406 20.0436 8.38078Z" fill="#F7F7F7"/>
</svg>
