<svg width="32" height="32" viewBox="0 0 32 32" fill="none" xmlns="http://www.w3.org/2000/svg">
<path d="M10.675 25.7028C10.675 28.6491 13.0634 31.0375 16.0097 31.0375C18.9559 31.0375 21.3444 28.6491 21.3444 25.7028C21.3444 18.4147 9.20406 18.4231 9.20406 10.7766C9.20406 7.27563 11.3275 5.58781 11.3275 5.58781C6.42813 7.47 2.95063 12.22 2.95063 17.7822C2.95063 22.3813 5.32781 26.425 8.92063 28.7516C9.12125 28.8816 9.39031 28.8128 9.50188 28.6012C9.60063 28.4137 9.53875 28.1816 9.35875 28.0691C8.42031 27.4822 5.68563 25.5169 4.48063 21.9019C2.99375 17.4412 7.43875 11.8669 8.80781 13.4847C9.62281 14.4478 9.61531 17.0116 14.8613 19.6569C14.8613 19.6569 10.675 21.6575 10.675 25.7031V25.7028Z" fill="#F7F7F7"/>
<path d="M13.0291 5.58719C12.3769 6.04344 10.6556 7.60875 10.6556 9.82375C10.6556 17.1119 23.0081 17.2669 23.0081 24.9134C23.0081 28.4144 20.6728 29.9391 20.6728 29.9391C25.5722 28.0569 29.0497 23.3069 29.0497 17.7447C29.0497 13.1456 26.6725 9.10187 23.0797 6.77531C22.8791 6.64531 22.61 6.71406 22.4984 6.92562C22.3997 7.11312 22.4616 7.34531 22.6416 7.45781C23.58 8.04469 26.3147 10.01 27.5197 13.625C29.0066 18.0856 24.5616 23.66 23.1925 22.0422C22.3775 21.0791 22.385 18.5153 17.1391 15.87C17.1391 15.87 21.3253 13.8694 21.3253 9.82375C21.3253 8.44406 20.6522 7.10875 19.9597 6.25937C17.4175 3.14094 15.1947 0.9625 15.1947 0.9625C15.1947 0.9625 16.0616 2.25187 15.5725 3.18531C15.0834 4.11875 13.97 4.92937 13.0291 5.58719Z" fill="#F7F7F7"/>
</svg>
