<svg width="119" height="32" viewBox="0 0 119 32" fill="none" xmlns="http://www.w3.org/2000/svg">
<path d="M32.0667 17.6959C32.0667 14.2424 34.5963 11.7568 38.0717 11.7568C41.5471 11.7568 44.0766 14.2424 44.0766 17.6959C44.0766 21.1493 41.5471 23.6349 38.0717 23.6349C34.6182 23.6349 32.0667 21.1493 32.0667 17.6959ZM41.5691 17.6959C41.5691 15.5402 40.1833 13.9125 38.0717 13.9125C35.96 13.9125 34.5962 15.5402 34.5962 17.6959C34.5962 19.8295 35.96 21.4792 38.0717 21.4792C40.1833 21.4572 41.5691 19.8295 41.5691 17.6959Z" fill="white"/>
<path d="M45.0225 21.8076L46.3422 19.9379C47.1561 20.7738 48.4099 21.4776 49.9936 21.4776C51.3354 21.4776 51.9953 20.8618 51.9953 20.2019C51.9953 18.1782 45.3744 19.5639 45.3744 15.2307C45.3744 13.317 47.0241 11.7333 49.7297 11.7333C51.5553 11.7333 53.0731 12.2832 54.2171 13.339L52.8531 15.1207C51.9293 14.2629 50.6755 13.8669 49.5097 13.8669C48.4539 13.8669 47.882 14.3289 47.882 15.0107C47.882 16.8364 54.4811 15.6046 54.4811 19.8939C54.4811 22.0055 52.9851 23.5893 49.8836 23.5893C47.684 23.6333 46.1003 22.8854 45.0225 21.8076Z" fill="white"/>
<path d="M66.1386 23.435V15.3843L62.9055 23.435H61.8277L58.5941 15.3843V23.435H56.1525V11.9309H59.5839L62.3775 18.8817L65.1711 11.9309H68.6245V23.4129H66.1386V23.435Z" fill="white"/>
<path d="M70.3184 17.6946C70.3184 14.2412 72.848 11.7556 76.3232 11.7556C79.7989 11.7556 82.3285 14.2412 82.3285 17.6946C82.3285 21.148 79.7989 23.6336 76.3232 23.6336C72.848 23.6336 70.3184 21.148 70.3184 17.6946ZM79.8208 17.6946C79.8208 15.539 78.4346 13.9112 76.3232 13.9112C74.2117 13.9112 72.848 15.539 72.848 17.6946C72.848 19.8283 74.2117 21.478 76.3232 21.478C78.4346 21.456 79.8208 19.8283 79.8208 17.6946Z" fill="white"/>
<path d="M83.2742 21.8076L84.5942 19.9379C85.4075 20.7738 86.6614 21.4776 88.2454 21.4776C89.5872 21.4776 90.247 20.8618 90.247 20.2019C90.247 18.1782 83.6262 19.5639 83.6262 15.2307C83.6262 13.317 85.2758 11.7333 87.9814 11.7333C89.807 11.7333 91.3248 12.2832 92.4688 13.339L91.1046 15.1207C90.1808 14.2629 88.927 13.8669 87.7616 13.8669C86.7056 13.8669 86.1339 14.3289 86.1339 15.0107C86.1339 16.8364 92.7323 15.6046 92.7323 19.8939C92.7323 22.0055 91.2368 23.5893 88.1355 23.5893C85.9355 23.6333 84.352 22.8854 83.2742 21.8076Z" fill="white"/>
<path d="M94.3823 23.435V11.9309H96.8458V23.4129H94.3823V23.435Z" fill="white"/>
<path d="M98.3418 21.8076L99.6613 19.9379C100.475 20.7738 101.729 21.4776 103.312 21.4776C104.654 21.4776 105.315 20.8618 105.315 20.2019C105.315 18.1782 98.6933 19.5639 98.6933 15.2307C98.6933 13.317 100.343 11.7333 103.049 11.7333C104.875 11.7333 106.392 12.2832 107.536 13.339L106.172 15.1207C105.248 14.2629 103.995 13.8669 102.829 13.8669C101.773 13.8669 101.201 14.3289 101.201 15.0107C101.201 16.8364 107.8 15.6046 107.8 19.8939C107.8 22.0055 106.304 23.5893 103.203 23.5893C100.981 23.6333 99.3973 22.8854 98.3418 21.8076Z" fill="white"/>
<path d="M27.7316 7.72539C27.471 6.72187 26.6333 5.7183 25.1256 4.60114C23.9156 3.71119 22.6312 3.19995 21.6075 3.19995C21.4027 3.19995 21.2165 3.21888 21.0304 3.25676C20.5651 3.35143 20.1555 3.69226 19.8949 4.2035C19.5785 4.80942 19.5041 5.62363 19.7088 6.11595C19.7833 6.26742 19.8763 6.45675 19.988 6.62715C19.0014 7.23307 18.443 7.40352 18.3685 7.42246C20.9373 8.29344 23.078 10.1112 24.4182 12.478L24.4368 12.2508C24.4927 11.626 24.6788 10.9065 24.9394 10.168C25.2 10.2437 25.4606 10.2816 25.7212 10.2816C26.41 10.2816 27.0056 9.9976 27.3779 9.48635C27.7502 8.9751 27.8991 8.29344 27.7316 7.72539Z" fill="#5E12A0"/>
<path d="M25.0512 9.61897C26.7451 10.0924 27.4338 8.76692 27.2105 7.877C26.9685 6.98703 26.1867 6.07817 24.8092 5.05568C23.4318 4.03319 22.0357 3.61663 21.1422 3.80598C20.2487 3.99532 19.9881 5.37759 20.2115 5.90777C20.3046 6.11604 20.5093 6.41897 20.7885 6.75983C20.4348 7.00596 20.0998 7.19535 19.8206 7.36575C21.5331 8.14207 23.0223 9.35391 24.1391 10.8687C24.2694 10.3574 24.4555 9.90303 24.6231 9.50537C24.7534 9.52431 24.9023 9.56217 25.0512 9.61897Z" fill="url(#paint0_radial_11_22681)"/>
<path d="M15.3531 28.1751C21.0999 28.1751 25.7585 23.4362 25.7585 17.5905C25.7585 11.7447 21.0999 7.00586 15.3531 7.00586C9.60632 7.00586 4.94763 11.7447 4.94763 17.5905C4.94763 23.4362 9.60632 28.1751 15.3531 28.1751Z" fill="url(#paint1_radial_11_22681)"/>
<path opacity="0.6" d="M26.3542 7.00589C24.9396 5.49112 23.7483 5.09347 22.3149 4.77158C21.1981 4.50649 21.4959 3.86271 22.8548 3.99525C22.2032 3.76803 21.589 3.71123 21.1422 3.8059C20.2487 3.99525 19.9881 5.37752 20.2115 5.90765C20.3046 6.11597 20.5093 6.41891 20.7885 6.75976C20.286 7.10056 19.8578 7.34675 19.5042 7.53608C19.6717 7.61181 19.8764 7.70648 20.1184 7.83902C20.7513 8.17987 21.44 8.74792 21.44 8.74792C20.3976 7.83901 20.621 7.42248 22.0543 6.39997C22.5011 6.07811 23.3201 6.11598 24.0833 6.51358C24.8465 6.91123 25.74 7.9148 25.74 7.9148L24.8837 9.58104C24.9396 9.59998 24.9954 9.61891 25.0512 9.63784C25.5911 9.78931 26.0192 9.75144 26.3542 9.61891C26.7452 9.37277 27.7689 8.53965 26.3542 7.00589Z" fill="#A98698"/>
<path d="M22.2963 5.68047C22.6686 5.83194 23.1525 6.09701 23.7482 6.49466C24.4556 6.96805 25.0698 7.49818 25.4608 7.91477C24.8092 8.78575 24.3811 9.97866 24.1205 10.8118C24.2508 11.0012 24.3997 11.1905 24.53 11.3798C24.6603 10.9065 24.8837 10.2059 25.1815 9.50527C25.256 9.52426 25.349 9.52426 25.4421 9.52426C25.6655 9.52426 25.9261 9.48634 26.1308 9.31594C26.2797 9.20234 26.4473 8.99407 26.4287 8.61535C26.4287 8.25562 26.1494 7.80117 25.5724 7.25205C25.1629 6.85439 24.6045 6.41893 24.046 6.02127C22.4452 4.94199 21.3283 4.63903 20.8258 5.15027C20.4907 5.49109 20.5279 5.90767 20.6396 6.21061C20.044 6.60826 19.5413 6.89226 19.2063 7.08165C19.4297 7.15738 19.6344 7.25205 19.8578 7.34671C20.4534 7.02485 21.3097 6.47573 22.2963 5.68047ZM25.8144 8.38815C25.8702 8.48282 25.8889 8.57749 25.8889 8.63429C25.8889 8.80469 25.833 8.86154 25.7958 8.89941C25.7213 8.95621 25.5724 8.99407 25.4421 8.99407C25.5538 8.76682 25.6841 8.57749 25.8144 8.38815ZM21.2166 5.56682C21.2725 5.51002 21.4214 5.47215 21.6634 5.51002C21.4772 5.66154 21.2911 5.79407 21.105 5.92661C21.0864 5.79407 21.105 5.66154 21.2166 5.56682Z" fill="#5E12A0"/>
<path d="M15.3531 6.38098C9.26617 6.38098 4.33337 11.3987 4.33337 17.5905C4.33337 23.7822 9.26617 28.8 15.3531 28.8C21.44 28.8 26.3728 23.7822 26.3728 17.5905C26.3728 11.3987 21.4214 6.38098 15.3531 6.38098ZM15.3531 28.1751C9.60127 28.1751 4.94765 23.4414 4.94765 17.5905C4.94765 11.7396 9.60127 7.00583 15.3531 7.00583C21.1049 7.00583 25.7585 11.7396 25.7585 17.5905C25.7585 23.4414 21.0863 28.1751 15.3531 28.1751Z" fill="#5E12A0"/>
<path opacity="0.6" d="M15.3531 28.1751C21.0999 28.1751 25.7585 23.4362 25.7585 17.5905C25.7585 11.7447 21.0999 7.00586 15.3531 7.00586C9.60632 7.00586 4.94763 11.7447 4.94763 17.5905C4.94763 23.4362 9.60632 28.1751 15.3531 28.1751Z" fill="url(#paint2_linear_11_22681)"/>
<path opacity="0.6" d="M15.2786 26.8876C9.60115 25.9597 5.74797 20.5254 6.67869 14.7503C7.08824 12.1941 8.354 10.0165 10.141 8.44495C7.53496 9.97865 5.59907 12.6485 5.07787 15.9053C4.16576 21.6805 8.01896 27.1148 13.6777 28.0425C16.8422 28.5727 19.895 27.5692 22.1473 25.6C20.1555 26.7739 17.7357 27.2852 15.2786 26.8876Z" fill="#A98698"/>
<path opacity="0.6" d="M17.0097 7.15745C14.3851 6.72193 11.8349 7.32785 9.75009 8.67222C9.71286 8.71009 9.67563 8.74795 9.67563 8.74795C10.4761 8.25569 11.6488 7.82017 11.6488 7.82017C8.63323 9.60006 7.70251 11.6261 7.70251 11.6261C8.87521 9.31601 12.3189 7.68763 15.018 7.57398C17.7171 7.46038 19.4854 8.27462 21.6447 10.0355C23.804 11.8154 25.107 15.4509 24.9767 18.329C24.865 21.2072 23.3758 23.5361 23.3758 23.5361C24.3996 22.1917 25.0139 21.2072 25.4048 20.2036C25.4793 19.9006 25.5537 19.5977 25.5909 19.2758C26.5217 13.5196 22.6871 8.08523 17.0097 7.15745Z" fill="url(#paint3_linear_11_22681)"/>
<path d="M25.2373 17.4958C25.2373 23.0438 20.8071 27.5503 15.3531 27.5503C9.89905 27.5503 5.4502 23.0438 5.4502 17.4958H25.2373Z" fill="url(#paint4_linear_11_22681)"/>
<g opacity="0.6">
<path opacity="0.6" d="M24.4555 17.4958C24.4555 22.9112 20.2487 27.342 14.9622 27.5503C15.0925 27.5503 15.2228 27.5503 15.3531 27.5503C20.8071 27.5503 25.2374 23.0438 25.2374 17.4958H24.4555Z" fill="url(#paint5_linear_11_22681)"/>
</g>
<g opacity="0.7">
<path opacity="0.7" d="M6.8463 17.4958H5.4502C5.4502 23.0438 9.88044 27.5503 15.3345 27.5503C15.5764 27.5503 15.7998 27.5503 16.0232 27.5314C10.9042 27.1527 6.8463 22.7976 6.8463 17.4958Z" fill="url(#paint6_linear_11_22681)"/>
</g>
<path d="M25.2187 17.5905C25.2187 16.4355 23.2456 15.7728 20.621 15.5455C18.7223 15.3941 16.805 15.5834 14.6085 16.265C12.7098 16.8331 10.9973 16.7384 9.75014 16.587C6.9766 16.265 5.4502 16.2272 5.4502 17.5905C5.4502 19.5597 9.39644 22.0213 15.3158 21.1692C18.3128 20.7337 19.8578 19.8438 21.6261 19.2378C23.5434 18.5941 25.2187 18.613 25.2187 17.5905Z" fill="url(#paint7_linear_11_22681)"/>
<path d="M18.5919 12.8189C19.5172 12.8189 20.2672 12.0559 20.2672 11.1148C20.2672 10.1736 19.5172 9.41064 18.5919 9.41064C17.6667 9.41064 16.9166 10.1736 16.9166 11.1148C16.9166 12.0559 17.6667 12.8189 18.5919 12.8189Z" fill="white"/>
<path d="M21.3283 14.0875C21.719 14.0875 22.0357 13.7653 22.0357 13.368C22.0357 12.9706 21.719 12.6484 21.3283 12.6484C20.9377 12.6484 20.621 12.9706 20.621 13.368C20.621 13.7653 20.9377 14.0875 21.3283 14.0875Z" fill="white"/>
<g opacity="0.6">
<path opacity="0.6" d="M23.8598 9.75143C23.8412 9.75143 23.8226 9.75143 23.8226 9.75143C23.7109 9.7325 23.6365 9.6189 23.6551 9.48637C23.8226 8.61533 24.53 7.78221 24.5672 7.74434C24.6416 7.64967 24.7905 7.64967 24.865 7.72541C24.9581 7.80114 24.9581 7.95261 24.8836 8.02834C24.865 8.04727 24.2135 8.82365 24.0646 9.58103C24.046 9.69463 23.9529 9.75143 23.8598 9.75143Z" fill="url(#paint8_linear_11_22681)"/>
</g>
<path opacity="0.2" d="M14.6655 25.4864C14.9534 25.4864 15.1867 25.249 15.1867 24.9562C15.1867 24.6634 14.9534 24.426 14.6655 24.426C14.3777 24.426 14.1443 24.6634 14.1443 24.9562C14.1443 25.249 14.3777 25.4864 14.6655 25.4864Z" fill="white"/>
<g opacity="0.4">
<path opacity="0.6" d="M14.3664 25.2975C14.1617 25.0892 14.1617 24.7484 14.3664 24.5401C14.4037 24.5022 14.4409 24.4833 14.4781 24.4454C14.4037 24.4644 14.3478 24.5022 14.292 24.559C14.0872 24.7673 14.0872 25.1082 14.292 25.3164C14.4595 25.4869 14.7201 25.5247 14.9249 25.4111C14.7387 25.4869 14.5153 25.449 14.3664 25.2975Z" fill="url(#paint9_linear_11_22681)"/>
</g>
<path opacity="0.3" d="M14.8504 24.8047C14.9122 24.8047 14.9622 24.7538 14.9622 24.6911C14.9622 24.6283 14.9122 24.5775 14.8504 24.5775C14.7888 24.5775 14.7388 24.6283 14.7388 24.6911C14.7388 24.7538 14.7888 24.8047 14.8504 24.8047Z" fill="white"/>
<path opacity="0.2" d="M17.3833 25.2214C17.6711 25.2214 17.9045 24.984 17.9045 24.6912C17.9045 24.3984 17.6711 24.161 17.3833 24.161C17.0954 24.161 16.8621 24.3984 16.8621 24.6912C16.8621 24.984 17.0954 25.2214 17.3833 25.2214Z" fill="white"/>
<g opacity="0.4">
<path opacity="0.6" d="M17.0842 25.0325C16.8795 24.8242 16.8795 24.4834 17.0842 24.2751C17.1214 24.2372 17.1587 24.2183 17.1959 24.1804C17.1214 24.1994 17.0656 24.2372 17.0098 24.294C16.805 24.5023 16.805 24.8431 17.0098 25.0514C17.1773 25.2219 17.4379 25.2597 17.6427 25.1461C17.4565 25.2219 17.2331 25.184 17.0842 25.0325Z" fill="url(#paint10_linear_11_22681)"/>
</g>
<path opacity="0.3" d="M17.5681 24.5396C17.6298 24.5396 17.6798 24.4887 17.6798 24.426C17.6798 24.3632 17.6298 24.3124 17.5681 24.3124C17.5064 24.3124 17.4564 24.3632 17.4564 24.426C17.4564 24.4887 17.5064 24.5396 17.5681 24.5396Z" fill="white"/>
<path opacity="0.2" d="M16.0418 26.452C16.2577 26.452 16.4327 26.274 16.4327 26.0544C16.4327 25.8348 16.2577 25.6567 16.0418 25.6567C15.8259 25.6567 15.6509 25.8348 15.6509 26.0544C15.6509 26.274 15.8259 26.452 16.0418 26.452Z" fill="white"/>
<g opacity="0.4">
<path opacity="0.6" d="M15.8184 26.3011C15.6695 26.1497 15.6695 25.8846 15.8184 25.7331C15.837 25.7141 15.8742 25.6952 15.8929 25.6763C15.837 25.6952 15.7998 25.7331 15.7626 25.771C15.6137 25.9225 15.6137 26.1875 15.7626 26.339C15.8929 26.4716 16.079 26.4905 16.2465 26.3958C16.0976 26.4526 15.9301 26.4148 15.8184 26.3011Z" fill="url(#paint11_linear_11_22681)"/>
</g>
<path opacity="0.3" d="M16.1721 25.9219C16.2132 25.9219 16.2466 25.888 16.2466 25.8461C16.2466 25.8043 16.2132 25.7704 16.1721 25.7704C16.131 25.7704 16.0977 25.8043 16.0977 25.8461C16.0977 25.888 16.131 25.9219 16.1721 25.9219Z" fill="white"/>
<path opacity="0.2" d="M18.443 26.1681C18.6589 26.1681 18.8339 25.99 18.8339 25.7705C18.8339 25.5508 18.6589 25.3728 18.443 25.3728C18.2271 25.3728 18.0521 25.5508 18.0521 25.7705C18.0521 25.99 18.2271 26.1681 18.443 26.1681Z" fill="white"/>
<g opacity="0.4">
<path opacity="0.6" d="M18.2196 26.0171C18.0707 25.8656 18.0707 25.6005 18.2196 25.449C18.2383 25.4301 18.2755 25.4111 18.2941 25.3922C18.2383 25.4111 18.201 25.449 18.1638 25.4869C18.0149 25.6384 18.0149 25.9035 18.1638 26.0549C18.2941 26.1875 18.4802 26.2064 18.6477 26.1117C18.4988 26.1685 18.3313 26.1307 18.2196 26.0171Z" fill="url(#paint12_linear_11_22681)"/>
</g>
<path opacity="0.3" d="M18.5734 25.6379C18.6145 25.6379 18.6478 25.604 18.6478 25.5622C18.6478 25.5204 18.6145 25.4865 18.5734 25.4865C18.5322 25.4865 18.4989 25.5204 18.4989 25.5622C18.4989 25.604 18.5322 25.6379 18.5734 25.6379Z" fill="white"/>
<path opacity="0.2" d="M12.4492 25.2971C12.922 25.2971 13.3054 24.9071 13.3054 24.426C13.3054 23.945 12.922 23.5551 12.4492 23.5551C11.9763 23.5551 11.5929 23.945 11.5929 24.426C11.5929 24.9071 11.9763 25.2971 12.4492 25.2971Z" fill="white"/>
<g opacity="0.4">
<path opacity="0.6" d="M11.9657 24.9751C11.6307 24.6343 11.6307 24.0851 11.9657 23.7443C12.0216 23.6875 12.0775 23.6497 12.1519 23.6118C12.0403 23.6497 11.9471 23.7254 11.8541 23.8011C11.519 24.1419 11.519 24.6911 11.8541 25.0319C12.1333 25.3159 12.5614 25.3727 12.8965 25.1645C12.58 25.297 12.2078 25.2402 11.9657 24.9751Z" fill="url(#paint13_linear_11_22681)"/>
</g>
<path opacity="0.3" d="M12.747 24.1609C12.8499 24.1609 12.9332 24.0761 12.9332 23.9716C12.9332 23.867 12.8499 23.7822 12.747 23.7822C12.6443 23.7822 12.5609 23.867 12.5609 23.9716C12.5609 24.0761 12.6443 24.1609 12.747 24.1609Z" fill="white"/>
<path opacity="0.2" d="M20.1002 23.1574C20.5731 23.1574 20.9564 22.7675 20.9564 22.2864C20.9564 21.8053 20.5731 21.4154 20.1002 21.4154C19.6273 21.4154 19.2439 21.8053 19.2439 22.2864C19.2439 22.7675 19.6273 23.1574 20.1002 23.1574Z" fill="white"/>
<g opacity="0.4">
<path opacity="0.6" d="M19.5971 22.8355C19.262 22.4947 19.262 21.9456 19.5971 21.6047C19.653 21.5479 19.7088 21.51 19.7833 21.4722C19.6716 21.51 19.5785 21.5858 19.4855 21.6615C19.1504 22.0024 19.1504 22.5515 19.4855 22.8923C19.7647 23.1763 20.1928 23.2331 20.5278 23.0249C20.2114 23.1574 19.8577 23.1006 19.5971 22.8355Z" fill="url(#paint14_linear_11_22681)"/>
</g>
<path opacity="0.3" d="M20.3976 22.0213C20.5004 22.0213 20.5837 21.9365 20.5837 21.8319C20.5837 21.7273 20.5004 21.6426 20.3976 21.6426C20.2948 21.6426 20.2114 21.7273 20.2114 21.8319C20.2114 21.9365 20.2948 22.0213 20.3976 22.0213Z" fill="white"/>
<defs>
<radialGradient id="paint0_radial_11_22681" cx="0" cy="0" r="1" gradientUnits="userSpaceOnUse" gradientTransform="translate(26.871 6.68404) scale(8.31957 8.46283)">
<stop stop-color="#FFEAFF" stop-opacity="0.6"/>
<stop offset="0.6807" stop-color="#A087C9"/>
<stop offset="1" stop-color="#10002F"/>
</radialGradient>
<radialGradient id="paint1_radial_11_22681" cx="0" cy="0" r="1" gradientUnits="userSpaceOnUse" gradientTransform="translate(22.2424 10.2932) scale(20.355 20.7055)">
<stop stop-color="#FFEAFF" stop-opacity="0.6"/>
<stop offset="0.6807" stop-color="#A087C9"/>
<stop offset="1" stop-color="#10002F"/>
</radialGradient>
<linearGradient id="paint2_linear_11_22681" x1="13.684" y1="28.025" x2="17.1247" y2="7.15701" gradientUnits="userSpaceOnUse">
<stop stop-color="#81FFFF"/>
<stop offset="0.6202" stop-color="white" stop-opacity="0"/>
</linearGradient>
<linearGradient id="paint3_linear_11_22681" x1="22.6862" y1="10.4022" x2="13.9478" y2="18.2843" gradientUnits="userSpaceOnUse">
<stop offset="0.2888" stop-color="white"/>
<stop offset="0.7796" stop-color="white" stop-opacity="0"/>
</linearGradient>
<linearGradient id="paint4_linear_11_22681" x1="5.45857" y1="22.5172" x2="25.2325" y2="22.5172" gradientUnits="userSpaceOnUse">
<stop stop-color="#0002E9"/>
<stop offset="0.9952" stop-color="#FF00C7"/>
</linearGradient>
<linearGradient id="paint5_linear_11_22681" x1="26.1686" y1="18.3781" x2="15.2325" y2="28.5384" gradientUnits="userSpaceOnUse">
<stop offset="0.2888" stop-color="white"/>
<stop offset="0.7796" stop-color="white" stop-opacity="0"/>
</linearGradient>
<linearGradient id="paint6_linear_11_22681" x1="5.45857" y1="22.5172" x2="16.0376" y2="22.5172" gradientUnits="userSpaceOnUse">
<stop stop-color="#000292"/>
<stop offset="0.9952" stop-color="#7D00C7"/>
</linearGradient>
<linearGradient id="paint7_linear_11_22681" x1="5.47185" y1="18.4258" x2="25.2193" y2="18.4258" gradientUnits="userSpaceOnUse">
<stop stop-color="#000292"/>
<stop offset="0.9952" stop-color="#BE00C7"/>
</linearGradient>
<linearGradient id="paint8_linear_11_22681" x1="24.8952" y1="7.65213" x2="23.4405" y2="9.97597" gradientUnits="userSpaceOnUse">
<stop offset="0.2888" stop-color="white"/>
<stop offset="0.7796" stop-color="white" stop-opacity="0"/>
</linearGradient>
<linearGradient id="paint9_linear_11_22681" x1="14.1379" y1="24.9729" x2="14.9254" y2="24.9729" gradientUnits="userSpaceOnUse">
<stop offset="0.2888" stop-color="white"/>
<stop offset="0.7796" stop-color="white" stop-opacity="0"/>
</linearGradient>
<linearGradient id="paint10_linear_11_22681" x1="16.8538" y1="24.7043" x2="17.6413" y2="24.7043" gradientUnits="userSpaceOnUse">
<stop offset="0.2888" stop-color="white"/>
<stop offset="0.7796" stop-color="white" stop-opacity="0"/>
</linearGradient>
<linearGradient id="paint11_linear_11_22681" x1="15.6484" y1="26.0595" x2="16.2397" y2="26.0595" gradientUnits="userSpaceOnUse">
<stop offset="0.2888" stop-color="white"/>
<stop offset="0.7796" stop-color="white" stop-opacity="0"/>
</linearGradient>
<linearGradient id="paint12_linear_11_22681" x1="18.0416" y1="25.7747" x2="18.6329" y2="25.7747" gradientUnits="userSpaceOnUse">
<stop offset="0.2888" stop-color="white"/>
<stop offset="0.7796" stop-color="white" stop-opacity="0"/>
</linearGradient>
<linearGradient id="paint13_linear_11_22681" x1="11.5942" y1="24.4482" x2="12.8804" y2="24.4482" gradientUnits="userSpaceOnUse">
<stop offset="0.2888" stop-color="white"/>
<stop offset="0.7796" stop-color="white" stop-opacity="0"/>
</linearGradient>
<linearGradient id="paint14_linear_11_22681" x1="19.2327" y1="22.3079" x2="20.5189" y2="22.3079" gradientUnits="userSpaceOnUse">
<stop offset="0.2888" stop-color="white"/>
<stop offset="0.7796" stop-color="white" stop-opacity="0"/>
</linearGradient>
</defs>
</svg>
