<svg width="179" height="48" viewBox="0 0 179 48" fill="none" xmlns="http://www.w3.org/2000/svg">
<path d="M48.3 26.5438C48.3 21.3636 52.0944 17.6352 57.3076 17.6352C62.5207 17.6352 66.315 21.3636 66.315 26.5438C66.315 31.7238 62.5207 35.4522 57.3076 35.4522C52.1274 35.4522 48.3 31.7238 48.3 26.5438ZM62.5536 26.5438C62.5536 23.3102 60.475 20.8687 57.3076 20.8687C54.14 20.8687 52.0944 23.3102 52.0944 26.5438C52.0944 29.7442 54.14 32.2188 57.3076 32.2188C60.475 32.1858 62.5536 29.7442 62.5536 26.5438Z" fill="white"/>
<path d="M67.7338 32.7114L69.7134 29.9069C70.9342 31.1607 72.8149 32.2165 75.1905 32.2165C77.2031 32.2165 78.193 31.2927 78.193 30.3029C78.193 27.2673 68.2616 29.346 68.2616 22.8461C68.2616 19.9756 70.7362 17.6 74.7946 17.6C77.533 17.6 79.8097 18.4249 81.5257 20.0085L79.4798 22.6811C78.094 21.3944 76.2133 20.8005 74.4646 20.8005C72.8809 20.8005 72.023 21.4933 72.023 22.5161C72.023 25.2547 81.9217 23.407 81.9217 29.8409C81.9217 33.0084 79.6778 35.384 75.0255 35.384C71.7261 35.45 69.3505 34.3281 67.7338 32.7114Z" fill="white"/>
<path d="M99.408 35.1525V23.0765L94.5584 35.1525H92.9416L88.0912 23.0765V35.1525H84.4288V17.8964H89.576L93.7664 28.3227L97.9568 17.8964H103.137V35.1195H99.408V35.1525Z" fill="white"/>
<path d="M105.678 26.5418C105.678 21.3618 109.472 17.6334 114.685 17.6334C119.898 17.6334 123.693 21.3618 123.693 26.5418C123.693 31.722 119.898 35.4504 114.685 35.4504C109.472 35.4504 105.678 31.722 105.678 26.5418ZM119.931 26.5418C119.931 23.3084 117.852 20.8668 114.685 20.8668C111.518 20.8668 109.472 23.3084 109.472 26.5418C109.472 29.7423 111.518 32.2169 114.685 32.2169C117.852 32.1839 119.931 29.7423 119.931 26.5418Z" fill="white"/>
<path d="M125.111 32.7114L127.091 29.9069C128.311 31.1607 130.192 32.2165 132.568 32.2165C134.581 32.2165 135.57 31.2927 135.57 30.3029C135.57 27.2673 125.639 29.346 125.639 22.8461C125.639 19.9756 128.114 17.6 132.172 17.6C134.91 17.6 137.187 18.4249 138.903 20.0085L136.857 22.6811C135.471 21.3944 133.59 20.8005 131.842 20.8005C130.258 20.8005 129.401 21.4933 129.401 22.5161C129.401 25.2547 139.298 23.407 139.298 29.8409C139.298 33.0084 137.055 35.384 132.403 35.384C129.103 35.45 126.728 34.3281 125.111 32.7114Z" fill="white"/>
<path d="M141.774 35.1525V17.8964H145.469V35.1195H141.774V35.1525Z" fill="white"/>
<path d="M147.713 32.7114L149.692 29.9069C150.913 31.1607 152.794 32.2165 155.169 32.2165C157.182 32.2165 158.172 31.2927 158.172 30.3029C158.172 27.2673 148.24 29.346 148.24 22.8461C148.24 19.9756 150.715 17.6 154.774 17.6C157.512 17.6 159.788 18.4249 161.504 20.0085L159.458 22.6811C158.073 21.3944 156.192 20.8005 154.443 20.8005C152.859 20.8005 152.002 21.4933 152.002 22.5161C152.002 25.2547 161.9 23.407 161.9 29.8409C161.9 33.0084 159.657 35.384 155.004 35.384C151.672 35.45 149.296 34.3281 147.713 32.7114Z" fill="white"/>
<path d="M41.7975 11.5881C41.4066 10.0829 40.1501 8.57751 37.8885 6.90176C36.0736 5.56685 34.147 4.79999 32.6113 4.79999C32.3042 4.79999 32.0249 4.82839 31.7457 4.8852C31.0477 5.0272 30.4334 5.53845 30.0425 6.30532C29.5679 7.21419 29.4562 8.43551 29.7633 9.17399C29.875 9.40119 30.0146 9.68519 30.1821 9.94079C28.7023 10.8497 27.8646 11.1053 27.7529 11.1337C31.6061 12.4402 34.8171 15.1669 36.8275 18.7171L36.8554 18.3763C36.9392 17.439 37.2184 16.3597 37.6092 15.2521C38.0002 15.3657 38.3911 15.4225 38.782 15.4225C39.8151 15.4225 40.7086 14.9965 41.267 14.2296C41.8254 13.4627 42.0488 12.4402 41.7975 11.5881Z" fill="#5E12A0"/>
<path d="M37.7769 14.4284C40.3178 15.1385 41.3508 13.1503 41.0158 11.8154C40.6528 10.4805 39.4801 9.1172 37.4139 7.58345C35.3477 6.04973 33.2536 5.42488 31.9134 5.7089C30.5731 5.99293 30.1822 8.06632 30.5173 8.8616C30.6569 9.174 30.964 9.6284 31.3828 10.1397C30.8523 10.5089 30.3497 10.793 29.9309 11.0486C32.4997 12.213 34.7335 14.0308 36.4087 16.303C36.6042 15.5361 36.8834 14.8545 37.1347 14.258C37.3301 14.2864 37.5535 14.3432 37.7769 14.4284Z" fill="url(#paint0_radial_11_22441)"/>
<path d="M23.2297 42.2627C31.8498 42.2627 38.8378 35.1544 38.8378 26.3858C38.8378 17.6172 31.8498 10.5089 23.2297 10.5089C14.6095 10.5089 7.62146 17.6172 7.62146 26.3858C7.62146 35.1544 14.6095 42.2627 23.2297 42.2627Z" fill="url(#paint1_radial_11_22441)"/>
<path opacity="0.6" d="M39.7313 10.5089C37.6093 8.23674 35.8223 7.64027 33.6723 7.15743C31.9971 6.7598 32.4438 5.79412 34.4821 5.99294C33.5048 5.65211 32.5834 5.5669 31.9133 5.70891C30.5731 5.99294 30.1821 8.06634 30.5172 8.86154C30.6568 9.17402 30.9639 9.62842 31.3827 10.1397C30.6289 10.6509 29.9867 11.0202 29.4562 11.3042C29.7075 11.4178 30.0146 11.5598 30.3776 11.7586C31.3269 12.2699 32.36 13.1219 32.36 13.1219C30.7964 11.7586 31.1315 11.1338 33.2815 9.60002C33.9515 9.11722 35.1801 9.17402 36.3249 9.77042C37.4697 10.3669 38.8099 11.8723 38.8099 11.8723L37.5255 14.3716C37.6093 14.4 37.6931 14.4284 37.7768 14.4568C38.5866 14.684 39.2287 14.6272 39.7313 14.4284C40.3177 14.0592 41.8534 12.8095 39.7313 10.5089Z" fill="#A98698"/>
<path d="M33.6445 8.52071C34.203 8.74791 34.9289 9.14551 35.8224 9.74199C36.8834 10.4521 37.8048 11.2473 38.3912 11.8721C37.4139 13.1786 36.7717 14.968 36.3808 16.2177C36.5762 16.5017 36.7996 16.7857 36.9951 17.0697C37.1906 16.3597 37.5256 15.3089 37.9723 14.2579C38.084 14.2864 38.2236 14.2864 38.3633 14.2864C38.6983 14.2864 39.0892 14.2295 39.3963 13.9739C39.6197 13.8035 39.871 13.4911 39.8431 12.923C39.8431 12.3834 39.4242 11.7017 38.5587 10.8781C37.9444 10.2816 37.1068 9.62839 36.2691 9.03191C33.8678 7.41298 32.1926 6.95854 31.4387 7.7254C30.9361 8.23663 30.9919 8.86151 31.1594 9.31591C30.266 9.91239 29.5121 10.3384 29.0095 10.6225C29.3446 10.7361 29.6517 10.8781 29.9868 11.0201C30.8802 10.5373 32.1646 9.71359 33.6445 8.52071ZM38.9217 12.5822C39.0054 12.7242 39.0334 12.8662 39.0334 12.9514C39.0334 13.207 38.9496 13.2923 38.8938 13.3491C38.7821 13.4343 38.5587 13.4911 38.3633 13.4911C38.5308 13.1502 38.7262 12.8662 38.9217 12.5822ZM32.025 8.35023C32.1088 8.26503 32.3322 8.20823 32.6952 8.26503C32.4159 8.49231 32.1367 8.69111 31.8575 8.88991C31.8296 8.69111 31.8575 8.49231 32.025 8.35023Z" fill="#5E12A0"/>
<path d="M23.2297 9.57153C14.0993 9.57153 6.70007 17.0982 6.70007 26.3858C6.70007 35.6734 14.0993 43.2 23.2297 43.2C32.3601 43.2 39.7593 35.6734 39.7593 26.3858C39.7593 17.0982 32.3322 9.57153 23.2297 9.57153ZM23.2297 42.2627C14.6019 42.2627 7.62149 35.1621 7.62149 26.3858C7.62149 17.6095 14.6019 10.5088 23.2297 10.5088C31.8574 10.5088 38.8378 17.6095 38.8378 26.3858C38.8378 35.1621 31.8295 42.2627 23.2297 42.2627Z" fill="#5E12A0"/>
<path opacity="0.6" d="M23.2297 42.2627C31.8498 42.2627 38.8378 35.1544 38.8378 26.3858C38.8378 17.6172 31.8498 10.5089 23.2297 10.5089C14.6095 10.5089 7.62146 17.6172 7.62146 26.3858C7.62146 35.1544 14.6095 42.2627 23.2297 42.2627Z" fill="url(#paint2_linear_11_22441)"/>
<path opacity="0.6" d="M23.118 40.3313C14.6019 38.9396 8.8221 30.7881 10.2182 22.1254C10.8325 18.2911 12.7311 15.0248 15.4116 12.6674C11.5026 14.968 8.59874 18.9727 7.81694 23.858C6.44878 32.5207 12.2286 40.6721 20.7167 42.0638C25.4634 42.8591 30.0426 41.3538 33.4211 38.4C30.4335 40.1609 26.8036 40.9277 23.118 40.3313Z" fill="#A98698"/>
<path opacity="0.6" d="M25.7147 10.7362C21.7777 10.0829 17.9525 10.9918 14.8253 13.0083C14.7694 13.0651 14.7136 13.1219 14.7136 13.1219C15.9142 12.3835 17.6733 11.7302 17.6733 11.7302C13.15 14.4001 11.7539 17.4391 11.7539 17.4391C13.5129 13.974 18.6785 11.5314 22.7271 11.361C26.7757 11.1906 29.4283 12.4119 32.6672 15.0533C35.9061 17.7231 37.8606 23.1764 37.6652 27.4935C37.4976 31.8107 35.2639 35.3042 35.2639 35.3042C36.7996 33.2876 37.721 31.8107 38.3073 30.3054C38.419 29.851 38.5307 29.3965 38.5865 28.9137C39.9826 20.2794 34.2308 12.1278 25.7147 10.7362Z" fill="url(#paint3_linear_11_22441)"/>
<path d="M38.0561 26.2438C38.0561 34.5657 31.4107 41.3255 23.2297 41.3255C15.0486 41.3255 8.37537 34.5657 8.37537 26.2438H38.0561Z" fill="url(#paint4_linear_11_22441)"/>
<g opacity="0.6">
<path opacity="0.6" d="M36.8834 26.2438C36.8834 34.3668 30.5731 41.013 22.6433 41.3255C22.8388 41.3255 23.0343 41.3255 23.2297 41.3255C31.4108 41.3255 38.0561 34.5657 38.0561 26.2438H36.8834Z" fill="url(#paint5_linear_11_22441)"/>
</g>
<g opacity="0.7">
<path opacity="0.7" d="M10.4695 26.2438H8.37537C8.37537 34.5657 15.0207 41.3255 23.2018 41.3255C23.5647 41.3255 23.8998 41.3255 24.2349 41.2971C16.5564 40.729 10.4695 34.1964 10.4695 26.2438Z" fill="url(#paint6_linear_11_22441)"/>
</g>
<path d="M38.0282 26.3858C38.0282 24.6533 35.0684 23.6592 31.1315 23.3183C28.2835 23.0911 25.4075 23.3751 22.1128 24.3976C19.2648 25.2497 16.696 25.1077 14.8253 24.8805C10.665 24.3976 8.37537 24.3408 8.37537 26.3858C8.37537 29.3396 14.2947 33.0319 23.1738 31.7539C27.6692 31.1006 29.9867 29.7657 32.6393 28.8568C35.5152 27.8911 38.0282 27.9195 38.0282 26.3858Z" fill="url(#paint7_linear_11_22441)"/>
<path d="M28.088 19.2284C29.4759 19.2284 30.601 18.0839 30.601 16.6722C30.601 15.2604 29.4759 14.116 28.088 14.116C26.7002 14.116 25.5751 15.2604 25.5751 16.6722C25.5751 18.0839 26.7002 19.2284 28.088 19.2284Z" fill="white"/>
<path d="M32.1925 21.1314C32.7785 21.1314 33.2535 20.6481 33.2535 20.0521C33.2535 19.456 32.7785 18.9727 32.1925 18.9727C31.6065 18.9727 31.1315 19.456 31.1315 20.0521C31.1315 20.6481 31.6065 21.1314 32.1925 21.1314Z" fill="white"/>
<g opacity="0.6">
<path opacity="0.6" d="M35.9899 14.6272C35.9619 14.6272 35.934 14.6272 35.934 14.6272C35.7665 14.5988 35.6548 14.4284 35.6827 14.2296C35.934 12.9231 36.9951 11.6734 37.0509 11.6166C37.1626 11.4746 37.3859 11.4746 37.4976 11.5882C37.6372 11.7018 37.6372 11.929 37.5255 12.0426C37.4976 12.071 36.5203 13.2355 36.297 14.3716C36.2691 14.542 36.1295 14.6272 35.9899 14.6272Z" fill="url(#paint8_linear_11_22441)"/>
</g>
<path opacity="0.2" d="M22.1983 38.2296C22.6301 38.2296 22.9802 37.8735 22.9802 37.4343C22.9802 36.9951 22.6301 36.639 22.1983 36.639C21.7666 36.639 21.4165 36.9951 21.4165 37.4343C21.4165 37.8735 21.7666 38.2296 22.1983 38.2296Z" fill="white"/>
<g opacity="0.4">
<path opacity="0.6" d="M21.7499 37.9463C21.4427 37.6339 21.4427 37.1226 21.7499 36.8102C21.8057 36.7534 21.8615 36.725 21.9174 36.6682C21.8057 36.6966 21.7219 36.7534 21.6382 36.8386C21.3311 37.151 21.3311 37.6623 21.6382 37.9747C21.8895 38.2304 22.2803 38.2872 22.5875 38.1167C22.3083 38.2304 21.9732 38.1736 21.7499 37.9463Z" fill="url(#paint9_linear_11_22441)"/>
</g>
<path opacity="0.3" d="M22.4757 37.207C22.5683 37.207 22.6433 37.1307 22.6433 37.0366C22.6433 36.9424 22.5683 36.8662 22.4757 36.8662C22.3833 36.8662 22.3082 36.9424 22.3082 37.0366C22.3082 37.1307 22.3833 37.207 22.4757 37.207Z" fill="white"/>
<path opacity="0.2" d="M26.2749 37.832C26.7066 37.832 27.0566 37.4759 27.0566 37.0367C27.0566 36.5975 26.7066 36.2415 26.2749 36.2415C25.8431 36.2415 25.493 36.5975 25.493 37.0367C25.493 37.4759 25.8431 37.832 26.2749 37.832Z" fill="white"/>
<g opacity="0.4">
<path opacity="0.6" d="M25.8264 37.5486C25.5193 37.2362 25.5193 36.725 25.8264 36.4126C25.8822 36.3558 25.9381 36.3274 25.9939 36.2706C25.8822 36.299 25.7985 36.3558 25.7147 36.441C25.4076 36.7534 25.4076 37.2646 25.7147 37.577C25.966 37.8327 26.3569 37.8895 26.6641 37.719C26.3848 37.8327 26.0498 37.7759 25.8264 37.5486Z" fill="url(#paint10_linear_11_22441)"/>
</g>
<path opacity="0.3" d="M26.5523 36.8094C26.6448 36.8094 26.7198 36.7331 26.7198 36.639C26.7198 36.5449 26.6448 36.4686 26.5523 36.4686C26.4598 36.4686 26.3848 36.5449 26.3848 36.639C26.3848 36.7331 26.4598 36.8094 26.5523 36.8094Z" fill="white"/>
<path opacity="0.2" d="M24.2627 39.6781C24.5866 39.6781 24.8491 39.4111 24.8491 39.0817C24.8491 38.7523 24.5866 38.4852 24.2627 38.4852C23.9389 38.4852 23.6764 38.7523 23.6764 39.0817C23.6764 39.4111 23.9389 39.6781 24.2627 39.6781Z" fill="white"/>
<g opacity="0.4">
<path opacity="0.6" d="M23.9277 39.4516C23.7043 39.2244 23.7043 38.8268 23.9277 38.5995C23.9556 38.5711 24.0114 38.5427 24.0394 38.5143C23.9556 38.5427 23.8998 38.5996 23.8439 38.6564C23.6206 38.8836 23.6206 39.2812 23.8439 39.5084C24.0394 39.7073 24.3186 39.7357 24.5698 39.5937C24.3465 39.6789 24.0952 39.6221 23.9277 39.4516Z" fill="url(#paint11_linear_11_22441)"/>
</g>
<path opacity="0.3" d="M24.4582 38.8828C24.5199 38.8828 24.5699 38.832 24.5699 38.7692C24.5699 38.7065 24.5199 38.6556 24.4582 38.6556C24.3966 38.6556 24.3466 38.7065 24.3466 38.7692C24.3466 38.832 24.3966 38.8828 24.4582 38.8828Z" fill="white"/>
<path opacity="0.2" d="M27.8646 39.252C28.1885 39.252 28.451 38.985 28.451 38.6556C28.451 38.3262 28.1885 38.0591 27.8646 38.0591C27.5408 38.0591 27.2783 38.3262 27.2783 38.6556C27.2783 38.985 27.5408 39.252 27.8646 39.252Z" fill="white"/>
<g opacity="0.4">
<path opacity="0.6" d="M27.5296 39.0256C27.3062 38.7984 27.3062 38.4007 27.5296 38.1735C27.5575 38.1451 27.6134 38.1167 27.6413 38.0883C27.5575 38.1167 27.5017 38.1735 27.4458 38.2303C27.2225 38.4576 27.2225 38.8552 27.4458 39.0824C27.6413 39.2812 27.9205 39.3096 28.1718 39.1676C27.9484 39.2528 27.6971 39.196 27.5296 39.0256Z" fill="url(#paint12_linear_11_22441)"/>
</g>
<path opacity="0.3" d="M28.0602 38.4568C28.1218 38.4568 28.1718 38.4059 28.1718 38.3432C28.1718 38.2805 28.1218 38.2296 28.0602 38.2296C27.9985 38.2296 27.9485 38.2805 27.9485 38.3432C27.9485 38.4059 27.9985 38.4568 28.0602 38.4568Z" fill="white"/>
<path opacity="0.2" d="M18.8739 37.9456C19.5832 37.9456 20.1582 37.3607 20.1582 36.6391C20.1582 35.9175 19.5832 35.3326 18.8739 35.3326C18.1645 35.3326 17.5895 35.9175 17.5895 36.6391C17.5895 37.3607 18.1645 37.9456 18.8739 37.9456Z" fill="white"/>
<g opacity="0.4">
<path opacity="0.6" d="M18.1486 37.4627C17.646 36.9515 17.646 36.1278 18.1486 35.6166C18.2324 35.5314 18.3162 35.4746 18.4278 35.4178C18.2603 35.4746 18.1206 35.5882 17.981 35.7018C17.4785 36.213 17.4785 37.0367 17.981 37.5479C18.3999 37.9739 19.0421 38.0591 19.5446 37.7467C19.07 37.9455 18.5116 37.8603 18.1486 37.4627Z" fill="url(#paint13_linear_11_22441)"/>
</g>
<path opacity="0.3" d="M19.3206 36.2414C19.4748 36.2414 19.5999 36.1142 19.5999 35.9574C19.5999 35.8005 19.4748 35.6733 19.3206 35.6733C19.1664 35.6733 19.0414 35.8005 19.0414 35.9574C19.0414 36.1142 19.1664 36.2414 19.3206 36.2414Z" fill="white"/>
<path opacity="0.2" d="M30.3503 34.7361C31.0597 34.7361 31.6347 34.1512 31.6347 33.4296C31.6347 32.708 31.0597 32.1231 30.3503 32.1231C29.641 32.1231 29.0659 32.708 29.0659 33.4296C29.0659 34.1512 29.641 34.7361 30.3503 34.7361Z" fill="white"/>
<g opacity="0.4">
<path opacity="0.6" d="M29.5958 34.2532C29.0931 33.742 29.0931 32.9183 29.5958 32.4071C29.6795 32.3219 29.7633 32.2651 29.875 32.2083C29.7074 32.2651 29.5678 32.3787 29.4282 32.4923C28.9256 33.0035 28.9256 33.8272 29.4282 34.3384C29.847 34.7645 30.4892 34.8497 30.9918 34.5373C30.5171 34.7361 29.9866 34.6509 29.5958 34.2532Z" fill="url(#paint14_linear_11_22441)"/>
</g>
<path opacity="0.3" d="M30.7964 33.032C30.9507 33.032 31.0757 32.9048 31.0757 32.7479C31.0757 32.591 30.9507 32.4639 30.7964 32.4639C30.6423 32.4639 30.5172 32.591 30.5172 32.7479C30.5172 32.9048 30.6423 33.032 30.7964 33.032Z" fill="white"/>
<defs>
<radialGradient id="paint0_radial_11_22441" cx="0" cy="0" r="1" gradientUnits="userSpaceOnUse" gradientTransform="translate(40.5065 10.026) scale(12.4794 12.6942)">
<stop stop-color="#FFEAFF" stop-opacity="0.6"/>
<stop offset="0.6807" stop-color="#A087C9"/>
<stop offset="1" stop-color="#10002F"/>
</radialGradient>
<radialGradient id="paint1_radial_11_22441" cx="0" cy="0" r="1" gradientUnits="userSpaceOnUse" gradientTransform="translate(33.5636 15.4399) scale(30.5326 31.0583)">
<stop stop-color="#FFEAFF" stop-opacity="0.6"/>
<stop offset="0.6807" stop-color="#A087C9"/>
<stop offset="1" stop-color="#10002F"/>
</radialGradient>
<linearGradient id="paint2_linear_11_22441" x1="20.726" y1="42.0375" x2="25.8871" y2="10.7356" gradientUnits="userSpaceOnUse">
<stop stop-color="#81FFFF"/>
<stop offset="0.6202" stop-color="white" stop-opacity="0"/>
</linearGradient>
<linearGradient id="paint3_linear_11_22441" x1="34.2294" y1="15.6034" x2="21.1218" y2="27.4264" gradientUnits="userSpaceOnUse">
<stop offset="0.2888" stop-color="white"/>
<stop offset="0.7796" stop-color="white" stop-opacity="0"/>
</linearGradient>
<linearGradient id="paint4_linear_11_22441" x1="8.38793" y1="33.7758" x2="38.0489" y2="33.7758" gradientUnits="userSpaceOnUse">
<stop stop-color="#0002E9"/>
<stop offset="0.9952" stop-color="#FF00C7"/>
</linearGradient>
<linearGradient id="paint5_linear_11_22441" x1="39.4529" y1="27.5671" x2="23.0488" y2="42.8075" gradientUnits="userSpaceOnUse">
<stop offset="0.2888" stop-color="white"/>
<stop offset="0.7796" stop-color="white" stop-opacity="0"/>
</linearGradient>
<linearGradient id="paint6_linear_11_22441" x1="8.38793" y1="33.7758" x2="24.2564" y2="33.7758" gradientUnits="userSpaceOnUse">
<stop stop-color="#000292"/>
<stop offset="0.9952" stop-color="#7D00C7"/>
</linearGradient>
<linearGradient id="paint7_linear_11_22441" x1="8.40785" y1="27.6387" x2="38.029" y2="27.6387" gradientUnits="userSpaceOnUse">
<stop stop-color="#000292"/>
<stop offset="0.9952" stop-color="#BE00C7"/>
</linearGradient>
<linearGradient id="paint8_linear_11_22441" x1="37.543" y1="11.4783" x2="35.3609" y2="14.964" gradientUnits="userSpaceOnUse">
<stop offset="0.2888" stop-color="white"/>
<stop offset="0.7796" stop-color="white" stop-opacity="0"/>
</linearGradient>
<linearGradient id="paint9_linear_11_22441" x1="21.4071" y1="37.4594" x2="22.5883" y2="37.4594" gradientUnits="userSpaceOnUse">
<stop offset="0.2888" stop-color="white"/>
<stop offset="0.7796" stop-color="white" stop-opacity="0"/>
</linearGradient>
<linearGradient id="paint10_linear_11_22441" x1="25.4807" y1="37.0564" x2="26.6621" y2="37.0564" gradientUnits="userSpaceOnUse">
<stop offset="0.2888" stop-color="white"/>
<stop offset="0.7796" stop-color="white" stop-opacity="0"/>
</linearGradient>
<linearGradient id="paint11_linear_11_22441" x1="23.6727" y1="39.0892" x2="24.5596" y2="39.0892" gradientUnits="userSpaceOnUse">
<stop offset="0.2888" stop-color="white"/>
<stop offset="0.7796" stop-color="white" stop-opacity="0"/>
</linearGradient>
<linearGradient id="paint12_linear_11_22441" x1="27.2626" y1="38.6621" x2="28.1494" y2="38.6621" gradientUnits="userSpaceOnUse">
<stop offset="0.2888" stop-color="white"/>
<stop offset="0.7796" stop-color="white" stop-opacity="0"/>
</linearGradient>
<linearGradient id="paint13_linear_11_22441" x1="17.5913" y1="36.6723" x2="19.5206" y2="36.6723" gradientUnits="userSpaceOnUse">
<stop offset="0.2888" stop-color="white"/>
<stop offset="0.7796" stop-color="white" stop-opacity="0"/>
</linearGradient>
<linearGradient id="paint14_linear_11_22441" x1="29.0491" y1="33.4619" x2="30.9784" y2="33.4619" gradientUnits="userSpaceOnUse">
<stop offset="0.2888" stop-color="white"/>
<stop offset="0.7796" stop-color="white" stop-opacity="0"/>
</linearGradient>
</defs>
</svg>
