<svg width="20" height="20" viewBox="0 0 20 20" fill="none" xmlns="http://www.w3.org/2000/svg">
<mask id="mask0_23_271" style="mask-type:alpha" maskUnits="userSpaceOnUse" x="0" y="0" width="20" height="20">
<rect width="20" height="20" fill="#D9D9D9"/>
</mask>
<g mask="url(#mask0_23_271)">
<path d="M10 18.3334C8.84724 18.3334 7.76391 18.1146 6.75002 17.6771C5.73613 17.2396 4.85419 16.6459 4.10419 15.8959C3.35419 15.1459 2.76044 14.2639 2.32294 13.25C1.88544 12.2361 1.66669 11.1528 1.66669 10C1.66669 8.84724 1.88544 7.76391 2.32294 6.75002C2.76044 5.73613 3.35419 4.85419 4.10419 4.10419C4.85419 3.35419 5.73613 2.76044 6.75002 2.32294C7.76391 1.88544 8.84724 1.66669 10 1.66669C11.1528 1.66669 12.2361 1.88544 13.25 2.32294C14.2639 2.76044 15.1459 3.35419 15.8959 4.10419C16.6459 4.85419 17.2396 5.73613 17.6771 6.75002C18.1146 7.76391 18.3334 8.84724 18.3334 10C18.3334 11.1528 18.1146 12.2361 17.6771 13.25C17.2396 14.2639 16.6459 15.1459 15.8959 15.8959C15.1459 16.6459 14.2639 17.2396 13.25 17.6771C12.2361 18.1146 11.1528 18.3334 10 18.3334ZM9.16669 16.6042V15.7709C8.68058 15.7014 8.21183 15.5695 7.76044 15.375C7.30905 15.1806 6.88891 14.9445 6.50002 14.6667L5.91669 15.2709C6.37502 15.632 6.87849 15.9271 7.4271 16.1563C7.97572 16.3854 8.55558 16.5347 9.16669 16.6042ZM10.8334 16.6042C11.4445 16.5347 12.0243 16.3854 12.5729 16.1563C13.1215 15.9271 13.625 15.632 14.0834 15.2709L13.5 14.6667C13.1111 14.9445 12.691 15.1806 12.2396 15.375C11.7882 15.5695 11.3195 15.7014 10.8334 15.7709V16.6042ZM10 14.1667C11.1528 14.1667 12.1354 13.7604 12.9479 12.9479C13.7604 12.1354 14.1667 11.1528 14.1667 10C14.1667 8.84724 13.7604 7.8646 12.9479 7.0521C12.1354 6.2396 11.1528 5.83335 10 5.83335C8.84724 5.83335 7.8646 6.2396 7.0521 7.0521C6.2396 7.8646 5.83335 8.84724 5.83335 10C5.83335 11.1528 6.2396 12.1354 7.0521 12.9479C7.8646 13.7604 8.84724 14.1667 10 14.1667ZM15.2709 14.0834C15.632 13.625 15.9271 13.1215 16.1563 12.5729C16.3854 12.0243 16.5347 11.4445 16.6042 10.8334H15.7709C15.7014 11.3195 15.5695 11.7882 15.375 12.2396C15.1806 12.691 14.9445 13.1111 14.6667 13.5L15.2709 14.0834ZM4.72919 14.0834L5.33335 13.4792C5.05558 13.0903 4.81946 12.6736 4.62502 12.2292C4.43058 11.7847 4.29863 11.3195 4.22919 10.8334H3.39585C3.4653 11.4445 3.6146 12.0243 3.84377 12.5729C4.07294 13.1215 4.36808 13.625 4.72919 14.0834ZM10 13.3334L7.50002 10L10 6.66669L12.5 10L10 13.3334ZM3.39585 9.16669H4.22919C4.29863 8.68058 4.43058 8.2153 4.62502 7.77085C4.81946 7.32641 5.05558 6.90974 5.33335 6.52085L4.72919 5.91669C4.36808 6.37502 4.07294 6.87849 3.84377 7.4271C3.6146 7.97572 3.4653 8.55558 3.39585 9.16669ZM15.7709 9.16669H16.6042C16.5347 8.55558 16.382 7.97572 16.1459 7.4271C15.9097 6.87849 15.6111 6.37502 15.25 5.91669L14.6667 6.50002C14.9445 6.88891 15.1806 7.30905 15.375 7.76044C15.5695 8.21183 15.7014 8.68058 15.7709 9.16669ZM6.52085 5.33335C6.90974 5.05558 7.32641 4.81946 7.77085 4.62502C8.2153 4.43058 8.68058 4.29863 9.16669 4.22919V3.39585C8.55558 3.4653 7.97572 3.6146 7.4271 3.84377C6.87849 4.07294 6.37502 4.36808 5.91669 4.72919L6.52085 5.33335ZM13.5 5.33335L14.0834 4.75002C13.625 4.38891 13.1215 4.0903 12.5729 3.85419C12.0243 3.61808 11.4445 3.4653 10.8334 3.39585V4.22919C11.3195 4.29863 11.7882 4.43058 12.2396 4.62502C12.691 4.81946 13.1111 5.05558 13.5 5.33335Z" fill="#F7F7F7"/>
</g>
</svg>
