<svg width="40" height="40" viewBox="0 0 40 40" fill="none" xmlns="http://www.w3.org/2000/svg">
<path fill-rule="evenodd" clip-rule="evenodd" d="M35.2714 26.675C36.1591 24.6447 36.6328 22.4573 36.6648 20.2417C36.6969 18.0257 36.2869 15.8258 35.4586 13.7704C34.6303 11.715 33.4004 9.8454 31.8409 8.271C30.2814 6.69659 28.4236 5.449 26.3761 4.60124C24.3288 3.75344 22.1328 3.32247 19.9169 3.33352C17.7006 3.34459 15.5093 3.79745 13.4703 4.66564C11.4314 5.53384 9.58616 6.7999 8.04244 8.38979C6.49872 9.97969 5.28757 11.8614 4.47986 13.925C2.88917 17.9888 2.95584 22.5145 4.66559 26.5295C6.37532 30.5448 9.59167 33.7293 13.6237 35.3988C17.6558 37.0683 22.1819 37.0898 26.2294 35.4587C30.2773 33.8275 33.5236 30.6738 35.2714 26.675ZM17.2923 5.22712C16.4278 5.3521 15.4694 5.61254 14.4173 6.01879C13.2015 6.47857 12.0524 7.09862 11.0007 7.86252C10.834 7.98754 11.2507 8.17502 11.6465 8.1021C13.2819 7.81044 14.8444 7.95627 16.4693 8.13337C17.1464 8.2167 18.1673 8.42504 19.5528 8.7792C19.8653 8.85212 20.1466 8.69587 20.3133 8.42504C20.8991 7.36435 21.6638 6.41287 22.5738 5.61254C22.6074 5.58749 22.6329 5.5527 22.6468 5.51282C22.6604 5.47295 22.6619 5.42984 22.6504 5.38919C22.6393 5.34854 22.6159 5.31227 22.5836 5.28519C22.5513 5.25812 22.5114 5.24149 22.4694 5.23752C21.4631 5.05052 20.4406 4.96674 19.4174 4.98752C18.6986 5.00837 18.0006 5.13335 17.2923 5.22712ZM19.7924 20.1437C19.9903 20.1437 20.1881 20.0917 20.3964 19.9877L22.5839 18.9458C24.6083 17.997 26.7184 17.2435 28.8861 16.696C29.3756 16.5708 29.7401 16.1126 29.6778 15.6333C29.6258 15.2167 29.5633 14.8313 29.4694 14.4459C29.3236 13.7167 28.6359 13.2584 28.0319 12.8521L27.7508 12.675C26.3094 11.6745 24.7746 10.8163 23.1673 10.1125L21.7716 9.51879C21.5214 9.4042 21.4591 9.22712 21.5839 8.99794C22.1778 7.85212 23.1881 6.60212 24.3966 6.19587C25.8236 5.71669 27.1776 6.97712 27.8861 8.07087C28.4799 9.00835 28.9694 10.0292 29.3444 11.1542C29.8549 12.7167 30.2091 14.3105 30.3859 15.9145C30.4488 16.4772 30.5111 17.1022 30.5631 17.7897C30.6674 19.1228 30.6674 20.4772 30.5946 21.8105V21.8625C30.5631 22.3625 30.5318 22.9355 30.1776 23.2062C26.4606 26.022 22.3556 28.285 17.9901 29.925C16.8863 30.3418 15.7091 30.6855 14.4798 30.9772C13.4069 31.2375 12.3965 31.3938 11.4278 31.4458C10.6986 31.4875 10.0111 31.3938 9.38611 31.1645C7.82359 30.5812 9.41734 28.3522 10.0111 27.6542L11.084 26.4145C11.1673 26.3105 11.2923 26.1228 11.1882 25.998C10.7194 25.4147 10.2715 25.3625 9.77151 25.8625C8.99026 26.6647 8.29236 27.6125 7.68819 28.7063C7.51109 29.0083 7.16734 28.8105 7.02151 28.5813C5.56339 26.2623 4.72417 23.6085 4.58401 20.8728C4.54234 20.0292 4.27151 17.5292 5.20902 17.0502C6.87567 22.3312 11.7715 26.0603 16.5216 28.4772C16.9693 28.7063 17.4068 28.8937 17.8236 29.0293C18.3446 29.1958 19.1986 28.8002 19.6048 28.5085C19.7819 28.3937 19.8339 28.1855 19.8131 27.9875L19.6673 27.2583C19.2611 25.3835 18.8341 23.4877 18.8341 21.5605C18.8341 20.3 18.8341 19.0917 19.0008 17.7897C19.2924 15.6751 19.8029 13.6646 20.4173 11.6125C20.4798 11.4042 20.4173 11.248 20.2194 11.1542C19.9761 11.0379 19.7158 10.9605 19.4484 10.925C19.4174 10.925 19.3861 10.925 19.3549 10.9459C19.1981 11.0506 19.0866 11.2105 19.0423 11.3938C18.7219 12.4344 18.4578 13.4915 18.2508 14.5605C17.9799 16.1231 17.6256 17.5813 17.5216 19.1855C17.4903 19.7895 17.2089 20.0812 16.6465 20.4252C15.5319 21.0813 14.7402 21.7272 13.8861 22.3625L12.2611 23.5605C11.8548 23.8522 11.4694 23.5188 11.1673 23.2585C8.74026 21.175 6.35484 18.1543 6.33401 14.7792C6.33401 13.1542 6.95902 11.6021 8.34444 10.6854C10.1153 9.51877 12.4382 9.18545 14.5215 9.31045C15.1464 9.35212 15.7611 9.4146 16.3758 9.50835C20.8966 10.1646 25.1883 12.2792 28.7818 15.1334C28.9276 15.2375 28.5734 15.3625 28.5111 15.3729C25.5944 16.1231 22.7819 17.2375 20.0736 18.6228C19.7924 18.7687 19.4278 20.1647 19.8029 20.1437H19.7924ZM17.7508 27.5187L18.2194 27.7063C18.3131 27.7375 18.3966 27.6542 18.3653 27.571C17.7819 25.6333 17.6361 23.5917 17.4798 21.5918C15.9174 22.5397 14.5319 23.5292 13.1048 24.6543C14.5357 25.7882 16.095 26.7495 17.7508 27.5187ZM30.3964 10.0292C30.2924 9.80002 30.2194 9.58127 30.1466 9.36252C30.0633 9.08129 30.4173 9.16462 30.5216 9.25837C31.8394 10.5931 32.9301 12.1342 33.7506 13.8209C33.8131 13.9459 34.2506 14.925 33.8859 14.8938C33.3654 14.8521 32.8131 14.8209 32.2193 14.8C32.0623 14.8028 31.9093 14.75 31.7873 14.6509C31.6651 14.5518 31.5823 14.4128 31.5526 14.2584C31.3039 12.8148 30.9168 11.3985 30.3964 10.0292ZM34.3548 18.8417C34.5111 18.6228 34.6361 18.3625 34.7403 18.0708C34.8861 17.6645 35.0319 17.1855 34.7194 16.8313C34.2819 16.3418 33.4383 16.1437 32.7506 16.1333L32.3861 16.1437C32.3464 16.1442 32.3078 16.1559 32.2746 16.1775C32.2413 16.1991 32.2149 16.2298 32.1984 16.266C32.1821 16.3019 32.1763 16.3421 32.1819 16.3812C32.1874 16.4206 32.2041 16.4575 32.2298 16.4876L34.0008 18.8522C34.1048 18.9668 34.2819 18.9563 34.3653 18.8522L34.3548 18.8417ZM33.0109 20.6125C32.7611 20.9252 32.4694 21.2063 32.1359 21.446C32.0006 21.5395 31.9694 21.2688 31.9694 21.2063C31.9901 20.571 31.9901 19.9563 31.9694 19.3938C31.9694 19.2272 31.9694 19.0708 31.9901 18.9355C32.0111 18.7897 32.1988 18.7377 32.2923 18.8522C32.5839 19.2062 32.8341 19.5917 33.0423 20.0188C33.1361 20.2063 33.1466 20.4353 33.0109 20.6022V20.6125ZM31.3548 28.8002C32.2641 28.4318 33.0404 27.7968 33.5814 26.9787C34.1224 26.1603 34.4033 25.1975 34.3861 24.2168C34.3861 23.696 34.2924 23.2272 34.1986 22.7375C34.1636 22.5145 34.0741 22.3032 33.9383 22.1228C33.8976 22.0757 33.8413 22.0457 33.7796 22.0378C33.7181 22.03 33.6556 22.0457 33.6048 22.0813C33.1881 22.3938 32.8026 22.7375 32.3651 23.123C31.9276 23.5083 31.7714 23.9147 31.7089 24.4562C31.5429 25.8115 31.2748 27.152 30.9068 28.4667C30.8339 28.7272 31.1361 28.9042 31.3548 28.8002ZM23.5216 28.9875C25.7681 27.8575 27.9241 26.555 29.9694 25.0918C30.1048 24.998 30.1776 25.0292 30.1776 25.1958C30.1986 25.3522 30.1776 25.5083 30.1571 25.6647C29.9219 26.824 29.6301 27.9713 29.2821 29.1022C29.2499 29.2183 29.1826 29.322 29.0893 29.3985C28.9963 29.4748 28.8814 29.5205 28.7611 29.5293C27.1466 29.7687 25.5633 29.6542 23.9383 29.4563C23.6674 29.425 23.0008 29.248 23.5216 28.9875ZM30.2506 31.5917L31.0736 30.727C31.1779 30.6125 31.0526 30.4147 30.8964 30.4563C30.7089 30.5188 30.2194 30.5605 30.1256 30.7688L29.7819 31.498C29.6466 31.7897 30.1256 31.7272 30.2506 31.5917ZM21.0006 31.3208L20.7194 30.7063C20.6361 30.5188 20.6986 30.2272 20.9278 30.196C21.0319 30.196 21.1256 30.196 21.2403 30.2272C22.1778 30.4978 23.0113 30.6855 23.7506 30.7793C25.1359 30.9667 26.4798 31.0917 27.8758 31.0397C27.9798 31.0397 28.4901 30.998 28.3756 31.2375C27.5944 32.925 25.9484 35.3208 23.7609 34.5397C23.3444 34.3833 22.8236 33.9772 22.5109 33.6333C21.8868 32.9487 21.3769 32.1677 21.0006 31.3208ZM11.7298 33.2585C13.4325 34.3108 15.3204 35.0287 17.2923 35.373C18.7193 35.6543 20.2299 35.5813 21.6673 35.5188C21.8236 35.5188 22.2403 35.3522 22.0424 35.1333C21.6569 34.7168 21.2194 34.2688 20.8966 33.8418C20.3758 33.1127 19.9383 32.3417 19.5943 31.5085C19.4383 31.1335 19.3131 30.9147 18.8651 31.071C17.5424 31.5813 16.1257 32.0085 14.6153 32.3522C13.584 32.5918 12.6153 32.6647 11.5944 32.8938C11.3653 32.9355 11.6673 33.2167 11.7298 33.2585Z" fill="#7A2BF9"/>
</svg>
